<?xml version="1.0" encoding="UTF-8" standalone="no"?>
<!-- Created with Inkscape (http://www.inkscape.org/) -->

<svg
   width="512"
   height="512"
   version="1.1"
   viewBox="0 0 511.99998 511.99998"
   id="svg1912"
   sodipodi:docname="aprilgrid.svg"
   inkscape:version="1.2.2 (b0a8486541, 2022-12-01)"
   inkscape:export-filename="aprilgrid120.png"
   inkscape:export-xdpi="96"
   inkscape:export-ydpi="96"
   xmlns:inkscape="http://www.inkscape.org/namespaces/inkscape"
   xmlns:sodipodi="http://sodipodi.sourceforge.net/DTD/sodipodi-0.dtd"
   xmlns="http://www.w3.org/2000/svg"
   xmlns:svg="http://www.w3.org/2000/svg">
  <defs
     id="defs1916" />
  <sodipodi:namedview
     id="namedview1914"
     pagecolor="#ffffff"
     bordercolor="#000000"
     borderopacity="0.25"
     inkscape:showpageshadow="2"
     inkscape:pageopacity="0.0"
     inkscape:pagecheckerboard="0"
     inkscape:deskcolor="#d1d1d1"
     showgrid="false"
     inkscape:zoom="0.98783804"
     inkscape:cx="478.82343"
     inkscape:cy="160.4514"
     inkscape:window-width="1920"
     inkscape:window-height="1131"
     inkscape:window-x="0"
     inkscape:window-y="32"
     inkscape:window-maximized="1"
     inkscape:current-layer="svg1912" />
  <rect
     style="fill:#ffffff;fill-opacity:1;stroke-width:2.09895"
     id="rect3261"
     width="512"
     height="512"
     x="0"
     y="0" />
  <g
     transform="matrix(0.11288971,0.19553071,0.19553071,-0.11288971,-286.77145,258.61619)"
     id="g1910">
    <path
       d="m 58.61,954.36 h 2266.7 v 2266.7 H 58.61 Z"
       fill="none"
       stroke="#231f20"
       id="path2" />
    <g
       id="g1882">
      <path
         d="m 280.52,1176.3 h 249.45 v 49.89 H 280.52 Z"
         id="path4" />
      <path
         d="m 280.52,1375.8 h 249.45 v 49.89 H 280.52 Z"
         id="path6" />
      <path
         d="m 480.08,1176.3 h 49.89 v 249.45 h -49.89 z"
         id="path8" />
      <path
         d="m 280.52,1176.3 h 49.89 v 249.45 h -49.89 z"
         id="path10" />
      <path
         d="m 380.3,1350.9 h 24.945 v 24.945 H 380.3 Z"
         id="path12" />
      <path
         d="m 430.19,1350.9 h 24.945 v 24.945 H 430.19 Z"
         id="path14" />
      <path
         d="m 330.41,1325.9 h 24.945 v 24.945 H 330.41 Z"
         id="path16" />
      <path
         d="m 430.19,1325.9 h 24.945 v 24.945 H 430.19 Z"
         id="path18" />
      <path
         d="m 330.41,1301 h 24.945 v 24.945 H 330.41 Z"
         id="path20" />
      <path
         d="m 405.24,1301 h 24.945 v 24.945 H 405.24 Z"
         id="path22" />
      <path
         d="m 430.19,1301 h 24.945 v 24.945 H 430.19 Z"
         id="path24" />
      <path
         d="m 455.13,1301 h 24.945 v 24.945 H 455.13 Z"
         id="path26" />
      <path
         d="m 355.35,1276 h 24.945 v 24.945 H 355.35 Z"
         id="path28" />
      <path
         d="m 405.24,1276 h 24.945 v 24.945 H 405.24 Z"
         id="path30" />
      <path
         d="m 430.19,1276 h 24.945 v 24.945 H 430.19 Z"
         id="path32" />
      <path
         d="m 455.13,1276 h 24.945 v 24.945 H 455.13 Z"
         id="path34" />
      <path
         d="m 330.41,1251.1 h 24.945 v 24.945 H 330.41 Z"
         id="path36" />
      <path
         d="m 380.3,1251.1 h 24.945 v 24.945 H 380.3 Z"
         id="path38" />
      <path
         d="m 455.13,1251.1 h 24.945 v 24.945 H 455.13 Z"
         id="path40" />
      <path
         d="m 330.41,1226.2 h 24.945 v 24.945 H 330.41 Z"
         id="path42" />
      <path
         d="m 355.35,1226.2 h 24.945 v 24.945 H 355.35 Z"
         id="path44" />
      <path
         d="m 380.3,1226.2 h 24.945 v 24.945 H 380.3 Z"
         id="path46" />
      <path
         d="m 430.19,1226.2 h 24.945 v 24.945 H 430.19 Z"
         id="path48" />
      <path
         d="m 455.13,1226.2 h 24.945 v 24.945 H 455.13 Z"
         id="path50" />
      <path
         d="m 205.68,1101.4 h 74.835 v 74.835 H 205.68 Z"
         id="path52" />
      <path
         d="m 529.97,1101.4 h 74.835 v 74.835 H 529.97 Z"
         id="path54" />
      <path
         d="m 529.97,1425.7 h 74.835 v 74.835 H 529.97 Z"
         id="path56" />
      <path
         d="m 205.68,1425.7 h 74.835 v 74.835 H 205.68 Z"
         id="path58" />
      <path
         d="m 604.8,1176.3 h 249.45 v 49.89 H 604.8 Z"
         id="path60" />
      <path
         d="m 604.8,1375.8 h 249.45 v 49.89 H 604.8 Z"
         id="path62" />
      <path
         d="m 804.36,1176.3 h 49.89 v 249.45 h -49.89 z"
         id="path64" />
      <path
         d="m 604.8,1176.3 h 49.89 v 249.45 H 604.8 Z"
         id="path66" />
      <path
         d="m 704.58,1350.9 h 24.945 v 24.945 H 704.58 Z"
         id="path68" />
      <path
         d="m 779.42,1350.9 h 24.945 v 24.945 H 779.42 Z"
         id="path70" />
      <path
         d="m 654.69,1325.9 h 24.945 v 24.945 H 654.69 Z"
         id="path72" />
      <path
         d="m 704.58,1325.9 h 24.945 v 24.945 H 704.58 Z"
         id="path74" />
      <path
         d="m 754.47,1301 h 24.945 v 24.945 H 754.47 Z"
         id="path76" />
      <path
         d="m 779.42,1301 h 24.945 v 24.945 H 779.42 Z"
         id="path78" />
      <path
         d="m 654.69,1276 h 24.945 v 24.945 H 654.69 Z"
         id="path80" />
      <path
         d="m 729.52,1276 h 24.945 v 24.945 H 729.52 Z"
         id="path82" />
      <path
         d="m 754.47,1276 h 24.945 v 24.945 H 754.47 Z"
         id="path84" />
      <path
         d="m 779.42,1276 h 24.945 v 24.945 H 779.42 Z"
         id="path86" />
      <path
         d="m 679.64,1251.1 h 24.945 v 24.945 H 679.64 Z"
         id="path88" />
      <path
         d="m 754.47,1251.1 h 24.945 v 24.945 H 754.47 Z"
         id="path90" />
      <path
         d="m 654.69,1226.2 h 24.945 v 24.945 H 654.69 Z"
         id="path92" />
      <path
         d="m 679.64,1226.2 h 24.945 v 24.945 H 679.64 Z"
         id="path94" />
      <path
         d="m 729.52,1226.2 h 24.945 v 24.945 H 729.52 Z"
         id="path96" />
      <path
         d="m 754.47,1226.2 h 24.945 v 24.945 H 754.47 Z"
         id="path98" />
      <path
         d="m 529.97,1101.4 h 74.835 v 74.835 H 529.97 Z"
         id="path100" />
      <path
         d="m 854.25,1101.4 h 74.835 v 74.835 H 854.25 Z"
         id="path102" />
      <path
         d="m 854.25,1425.7 h 74.835 v 74.835 H 854.25 Z"
         id="path104" />
      <path
         d="m 529.97,1425.7 h 74.835 v 74.835 H 529.97 Z"
         id="path106" />
      <path
         d="m 929.08,1176.3 h 249.45 v 49.89 H 929.08 Z"
         id="path108" />
      <path
         d="m 929.08,1375.8 h 249.45 v 49.89 H 929.08 Z"
         id="path110" />
      <path
         d="m 1128.6,1176.3 h 49.89 v 249.45 h -49.89 z"
         id="path112" />
      <path
         d="m 929.08,1176.3 h 49.89 v 249.45 h -49.89 z"
         id="path114" />
      <path
         d="m 1028.9,1350.9 h 24.945 v 24.945 H 1028.9 Z"
         id="path116" />
      <path
         d="m 978.97,1325.9 h 24.945 v 24.945 H 978.97 Z"
         id="path118" />
      <path
         d="m 1028.9,1325.9 h 24.945 v 24.945 H 1028.9 Z"
         id="path120" />
      <path
         d="m 1053.8,1325.9 h 24.945 v 24.945 H 1053.8 Z"
         id="path122" />
      <path
         d="m 1103.7,1325.9 h 24.945 v 24.945 H 1103.7 Z"
         id="path124" />
      <path
         d="m 1003.9,1301 h 24.945 v 24.945 H 1003.9 Z"
         id="path126" />
      <path
         d="m 1028.9,1301 h 24.945 v 24.945 H 1028.9 Z"
         id="path128" />
      <path
         d="m 1053.8,1301 h 24.945 v 24.945 H 1053.8 Z"
         id="path130" />
      <path
         d="m 1078.8,1301 h 24.945 v 24.945 H 1078.8 Z"
         id="path132" />
      <path
         d="m 1103.7,1301 h 24.945 v 24.945 H 1103.7 Z"
         id="path134" />
      <path
         d="m 978.97,1276 h 24.945 v 24.945 H 978.97 Z"
         id="path136" />
      <path
         d="m 1003.9,1276 h 24.945 v 24.945 H 1003.9 Z"
         id="path138" />
      <path
         d="m 1053.8,1276 h 24.945 v 24.945 H 1053.8 Z"
         id="path140" />
      <path
         d="m 1078.8,1276 h 24.945 v 24.945 H 1078.8 Z"
         id="path142" />
      <path
         d="m 978.97,1251.1 h 24.945 v 24.945 H 978.97 Z"
         id="path144" />
      <path
         d="m 1003.9,1251.1 h 24.945 v 24.945 H 1003.9 Z"
         id="path146" />
      <path
         d="m 1028.9,1251.1 h 24.945 v 24.945 H 1028.9 Z"
         id="path148" />
      <path
         d="m 1078.8,1251.1 h 24.945 v 24.945 H 1078.8 Z"
         id="path150" />
      <path
         d="m 1103.7,1251.1 h 24.945 v 24.945 H 1103.7 Z"
         id="path152" />
      <path
         d="m 978.97,1226.2 h 24.945 v 24.945 H 978.97 Z"
         id="path154" />
      <path
         d="m 1003.9,1226.2 h 24.945 v 24.945 H 1003.9 Z"
         id="path156" />
      <path
         d="m 1103.7,1226.2 h 24.945 v 24.945 H 1103.7 Z"
         id="path158" />
      <path
         d="m 854.25,1101.4 h 74.835 v 74.835 H 854.25 Z"
         id="path160" />
      <path
         d="m 1178.5,1101.4 h 74.835 v 74.835 H 1178.5 Z"
         id="path162" />
      <path
         d="m 1178.5,1425.7 h 74.835 v 74.835 H 1178.5 Z"
         id="path164" />
      <path
         d="m 854.25,1425.7 h 74.835 v 74.835 H 854.25 Z"
         id="path166" />
      <path
         d="m 1253.4,1176.3 h 249.45 v 49.89 H 1253.4 Z"
         id="path168" />
      <path
         d="m 1253.4,1375.8 h 249.45 v 49.89 H 1253.4 Z"
         id="path170" />
      <path
         d="m 1452.9,1176.3 h 49.89 v 249.45 h -49.89 z"
         id="path172" />
      <path
         d="m 1253.4,1176.3 h 49.89 v 249.45 h -49.89 z"
         id="path174" />
      <path
         d="m 1378.1,1350.9 h 24.945 v 24.945 H 1378.1 Z"
         id="path176" />
      <path
         d="m 1403,1350.9 h 24.945 v 24.945 H 1403 Z"
         id="path178" />
      <path
         d="m 1303.3,1325.9 h 24.945 v 24.945 H 1303.3 Z"
         id="path180" />
      <path
         d="m 1328.2,1325.9 h 24.945 v 24.945 H 1328.2 Z"
         id="path182" />
      <path
         d="m 1353.1,1325.9 h 24.945 v 24.945 H 1353.1 Z"
         id="path184" />
      <path
         d="m 1328.2,1301 h 24.945 v 24.945 H 1328.2 Z"
         id="path186" />
      <path
         d="m 1353.1,1301 h 24.945 v 24.945 H 1353.1 Z"
         id="path188" />
      <path
         d="m 1328.2,1276 h 24.945 v 24.945 H 1328.2 Z"
         id="path190" />
      <path
         d="m 1378.1,1276 h 24.945 v 24.945 H 1378.1 Z"
         id="path192" />
      <path
         d="m 1403,1276 h 24.945 v 24.945 H 1403 Z"
         id="path194" />
      <path
         d="m 1353.1,1251.1 h 24.945 v 24.945 H 1353.1 Z"
         id="path196" />
      <path
         d="m 1378.1,1251.1 h 24.945 v 24.945 H 1378.1 Z"
         id="path198" />
      <path
         d="m 1428,1251.1 h 24.945 v 24.945 H 1428 Z"
         id="path200" />
      <path
         d="m 1303.3,1226.2 h 24.945 v 24.945 H 1303.3 Z"
         id="path202" />
      <path
         d="m 1378.1,1226.2 h 24.945 v 24.945 H 1378.1 Z"
         id="path204" />
      <path
         d="m 1403,1226.2 h 24.945 v 24.945 H 1403 Z"
         id="path206" />
      <path
         d="m 1428,1226.2 h 24.945 v 24.945 H 1428 Z"
         id="path208" />
      <path
         d="m 1178.5,1101.4 h 74.835 v 74.835 H 1178.5 Z"
         id="path210" />
      <path
         d="m 1502.8,1101.4 h 74.835 v 74.835 H 1502.8 Z"
         id="path212" />
      <path
         d="m 1502.8,1425.7 h 74.835 v 74.835 H 1502.8 Z"
         id="path214" />
      <path
         d="m 1178.5,1425.7 h 74.835 v 74.835 H 1178.5 Z"
         id="path216" />
      <path
         d="m 1577.7,1176.3 h 249.45 v 49.89 H 1577.7 Z"
         id="path218" />
      <path
         d="m 1577.7,1375.8 h 249.45 v 49.89 H 1577.7 Z"
         id="path220" />
      <path
         d="m 1777.2,1176.3 h 49.89 v 249.45 h -49.89 z"
         id="path222" />
      <path
         d="m 1577.7,1176.3 h 49.89 v 249.45 h -49.89 z"
         id="path224" />
      <path
         d="m 1702.4,1350.9 h 24.945 v 24.945 H 1702.4 Z"
         id="path226" />
      <path
         d="m 1752.3,1350.9 h 24.945 v 24.945 H 1752.3 Z"
         id="path228" />
      <path
         d="m 1727.3,1325.9 h 24.945 v 24.945 H 1727.3 Z"
         id="path230" />
      <path
         d="m 1752.3,1325.9 h 24.945 v 24.945 H 1752.3 Z"
         id="path232" />
      <path
         d="m 1652.5,1301 h 24.945 v 24.945 H 1652.5 Z"
         id="path234" />
      <path
         d="m 1627.5,1276 h 24.945 v 24.945 H 1627.5 Z"
         id="path236" />
      <path
         d="m 1652.5,1276 h 24.945 v 24.945 H 1652.5 Z"
         id="path238" />
      <path
         d="m 1702.4,1276 h 24.945 v 24.945 H 1702.4 Z"
         id="path240" />
      <path
         d="m 1752.3,1276 h 24.945 v 24.945 H 1752.3 Z"
         id="path242" />
      <path
         d="m 1652.5,1251.1 h 24.945 v 24.945 H 1652.5 Z"
         id="path244" />
      <path
         d="m 1677.4,1251.1 h 24.945 v 24.945 H 1677.4 Z"
         id="path246" />
      <path
         d="m 1702.4,1251.1 h 24.945 v 24.945 H 1702.4 Z"
         id="path248" />
      <path
         d="m 1727.3,1251.1 h 24.945 v 24.945 H 1727.3 Z"
         id="path250" />
      <path
         d="m 1752.3,1251.1 h 24.945 v 24.945 H 1752.3 Z"
         id="path252" />
      <path
         d="m 1652.5,1226.2 h 24.945 v 24.945 H 1652.5 Z"
         id="path254" />
      <path
         d="m 1677.4,1226.2 h 24.945 v 24.945 H 1677.4 Z"
         id="path256" />
      <path
         d="m 1702.4,1226.2 h 24.945 v 24.945 H 1702.4 Z"
         id="path258" />
      <path
         d="m 1752.3,1226.2 h 24.945 v 24.945 H 1752.3 Z"
         id="path260" />
      <path
         d="m 1502.8,1101.4 h 74.835 v 74.835 H 1502.8 Z"
         id="path262" />
      <path
         d="m 1827.1,1101.4 h 74.835 v 74.835 H 1827.1 Z"
         id="path264" />
      <path
         d="m 1827.1,1425.7 h 74.835 v 74.835 H 1827.1 Z"
         id="path266" />
      <path
         d="m 1502.8,1425.7 h 74.835 v 74.835 H 1502.8 Z"
         id="path268" />
      <path
         d="m 1901.9,1176.3 h 249.45 v 49.89 H 1901.9 Z"
         id="path270" />
      <path
         d="m 1901.9,1375.8 h 249.45 v 49.89 H 1901.9 Z"
         id="path272" />
      <path
         d="m 2101.5,1176.3 h 49.89 v 249.45 h -49.89 z"
         id="path274" />
      <path
         d="m 1901.9,1176.3 h 49.89 v 249.45 h -49.89 z"
         id="path276" />
      <path
         d="m 2051.6,1350.9 h 24.945 v 24.945 H 2051.6 Z"
         id="path278" />
      <path
         d="m 2076.5,1350.9 h 24.945 v 24.945 H 2076.5 Z"
         id="path280" />
      <path
         d="m 2001.7,1325.9 h 24.945 v 24.945 H 2001.7 Z"
         id="path282" />
      <path
         d="m 2026.7,1325.9 h 24.945 v 24.945 H 2026.7 Z"
         id="path284" />
      <path
         d="m 2051.6,1325.9 h 24.945 v 24.945 H 2051.6 Z"
         id="path286" />
      <path
         d="m 2001.7,1301 h 24.945 v 24.945 H 2001.7 Z"
         id="path288" />
      <path
         d="m 2076.5,1301 h 24.945 v 24.945 H 2076.5 Z"
         id="path290" />
      <path
         d="m 1976.8,1276 h 24.945 v 24.945 H 1976.8 Z"
         id="path292" />
      <path
         d="m 2026.7,1276 h 24.945 v 24.945 H 2026.7 Z"
         id="path294" />
      <path
         d="m 1951.8,1251.1 h 24.945 v 24.945 H 1951.8 Z"
         id="path296" />
      <path
         d="m 1976.8,1251.1 h 24.945 v 24.945 H 1976.8 Z"
         id="path298" />
      <path
         d="m 2076.5,1251.1 h 24.945 v 24.945 H 2076.5 Z"
         id="path300" />
      <path
         d="m 1976.8,1226.2 h 24.945 v 24.945 H 1976.8 Z"
         id="path302" />
      <path
         d="m 2051.6,1226.2 h 24.945 v 24.945 H 2051.6 Z"
         id="path304" />
      <path
         d="m 2076.5,1226.2 h 24.945 v 24.945 H 2076.5 Z"
         id="path306" />
      <path
         d="m 1827.1,1101.4 h 74.835 v 74.835 H 1827.1 Z"
         id="path308" />
      <path
         d="m 2151.4,1101.4 h 74.834 v 74.835 H 2151.4 Z"
         id="path310" />
      <path
         d="m 2151.4,1425.7 h 74.834 v 74.835 H 2151.4 Z"
         id="path312" />
      <path
         d="m 1827.1,1425.7 h 74.835 v 74.835 H 1827.1 Z"
         id="path314" />
      <path
         d="m 280.52,1500.5 h 249.45 v 49.89 H 280.52 Z"
         id="path316" />
      <path
         d="m 280.52,1700.1 h 249.45 v 49.89 H 280.52 Z"
         id="path318" />
      <path
         d="m 480.08,1500.5 h 49.89 v 249.45 h -49.89 z"
         id="path320" />
      <path
         d="m 280.52,1500.5 h 49.89 v 249.45 h -49.89 z"
         id="path322" />
      <path
         d="m 330.41,1675.2 h 24.945 v 24.945 H 330.41 Z"
         id="path324" />
      <path
         d="m 355.35,1675.2 h 24.945 v 24.945 H 355.35 Z"
         id="path326" />
      <path
         d="m 380.3,1675.2 h 24.945 v 24.945 H 380.3 Z"
         id="path328" />
      <path
         d="m 405.24,1675.2 h 24.945 v 24.945 H 405.24 Z"
         id="path330" />
      <path
         d="m 430.19,1675.2 h 24.945 v 24.945 H 430.19 Z"
         id="path332" />
      <path
         d="m 330.41,1650.2 h 24.945 v 24.945 H 330.41 Z"
         id="path334" />
      <path
         d="m 380.3,1650.2 h 24.945 v 24.945 H 380.3 Z"
         id="path336" />
      <path
         d="m 455.13,1650.2 h 24.945 v 24.945 H 455.13 Z"
         id="path338" />
      <path
         d="m 355.35,1625.3 h 24.945 v 24.945 H 355.35 Z"
         id="path340" />
      <path
         d="m 405.24,1625.3 h 24.945 v 24.945 H 405.24 Z"
         id="path342" />
      <path
         d="m 430.19,1625.3 h 24.945 v 24.945 H 430.19 Z"
         id="path344" />
      <path
         d="m 330.41,1600.3 h 24.945 v 24.945 H 330.41 Z"
         id="path346" />
      <path
         d="m 430.19,1600.3 h 24.945 v 24.945 H 430.19 Z"
         id="path348" />
      <path
         d="m 330.41,1575.4 h 24.945 v 24.945 H 330.41 Z"
         id="path350" />
      <path
         d="m 355.35,1575.4 h 24.945 v 24.945 H 355.35 Z"
         id="path352" />
      <path
         d="m 380.3,1575.4 h 24.945 v 24.945 H 380.3 Z"
         id="path354" />
      <path
         d="m 405.24,1575.4 h 24.945 v 24.945 H 405.24 Z"
         id="path356" />
      <path
         d="m 455.13,1575.4 h 24.945 v 24.945 H 455.13 Z"
         id="path358" />
      <path
         d="m 330.41,1550.4 h 24.945 v 24.945 H 330.41 Z"
         id="path360" />
      <path
         d="m 355.35,1550.4 h 24.945 v 24.945 H 355.35 Z"
         id="path362" />
      <path
         d="m 380.3,1550.4 h 24.945 v 24.945 H 380.3 Z"
         id="path364" />
      <path
         d="m 430.19,1550.4 h 24.945 v 24.945 H 430.19 Z"
         id="path366" />
      <path
         d="m 205.68,1425.7 h 74.835 v 74.835 H 205.68 Z"
         id="path368" />
      <path
         d="m 529.97,1425.7 h 74.835 v 74.835 H 529.97 Z"
         id="path370" />
      <path
         d="m 529.97,1750 h 74.835 v 74.835 H 529.97 Z"
         id="path372" />
      <path
         d="m 205.68,1750 h 74.835 v 74.835 H 205.68 Z"
         id="path374" />
      <path
         d="m 604.8,1500.5 h 249.45 v 49.89 H 604.8 Z"
         id="path376" />
      <path
         d="m 604.8,1700.1 h 249.45 v 49.89 H 604.8 Z"
         id="path378" />
      <path
         d="m 804.36,1500.5 h 49.89 v 249.45 h -49.89 z"
         id="path380" />
      <path
         d="m 604.8,1500.5 h 49.89 v 249.45 H 604.8 Z"
         id="path382" />
      <path
         d="m 654.69,1675.2 h 24.945 v 24.945 H 654.69 Z"
         id="path384" />
      <path
         d="m 679.64,1675.2 h 24.945 v 24.945 H 679.64 Z"
         id="path386" />
      <path
         d="m 704.58,1675.2 h 24.945 v 24.945 H 704.58 Z"
         id="path388" />
      <path
         d="m 754.47,1675.2 h 24.945 v 24.945 H 754.47 Z"
         id="path390" />
      <path
         d="m 779.42,1675.2 h 24.945 v 24.945 H 779.42 Z"
         id="path392" />
      <path
         d="m 654.69,1650.2 h 24.945 v 24.945 H 654.69 Z"
         id="path394" />
      <path
         d="m 679.64,1650.2 h 24.945 v 24.945 H 679.64 Z"
         id="path396" />
      <path
         d="m 704.58,1650.2 h 24.945 v 24.945 H 704.58 Z"
         id="path398" />
      <path
         d="m 779.42,1650.2 h 24.945 v 24.945 H 779.42 Z"
         id="path400" />
      <path
         d="m 654.69,1625.3 h 24.945 v 24.945 H 654.69 Z"
         id="path402" />
      <path
         d="m 704.58,1625.3 h 24.945 v 24.945 H 704.58 Z"
         id="path404" />
      <path
         d="m 754.47,1625.3 h 24.945 v 24.945 H 754.47 Z"
         id="path406" />
      <path
         d="m 779.42,1625.3 h 24.945 v 24.945 H 779.42 Z"
         id="path408" />
      <path
         d="m 679.64,1600.3 h 24.945 v 24.945 H 679.64 Z"
         id="path410" />
      <path
         d="m 779.42,1600.3 h 24.945 v 24.945 H 779.42 Z"
         id="path412" />
      <path
         d="m 654.69,1575.4 h 24.945 v 24.945 H 654.69 Z"
         id="path414" />
      <path
         d="m 679.64,1575.4 h 24.945 v 24.945 H 679.64 Z"
         id="path416" />
      <path
         d="m 704.58,1575.4 h 24.945 v 24.945 H 704.58 Z"
         id="path418" />
      <path
         d="m 654.69,1550.4 h 24.945 v 24.945 H 654.69 Z"
         id="path420" />
      <path
         d="m 704.58,1550.4 h 24.945 v 24.945 H 704.58 Z"
         id="path422" />
      <path
         d="m 754.47,1550.4 h 24.945 v 24.945 H 754.47 Z"
         id="path424" />
      <path
         d="m 779.42,1550.4 h 24.945 v 24.945 H 779.42 Z"
         id="path426" />
      <path
         d="m 529.97,1425.7 h 74.835 v 74.835 H 529.97 Z"
         id="path428" />
      <path
         d="m 854.25,1425.7 h 74.835 v 74.835 H 854.25 Z"
         id="path430" />
      <path
         d="m 854.25,1750 h 74.835 v 74.835 H 854.25 Z"
         id="path432" />
      <path
         d="m 529.97,1750 h 74.835 v 74.835 H 529.97 Z"
         id="path434" />
      <path
         d="m 929.08,1500.5 h 249.45 v 49.89 H 929.08 Z"
         id="path436" />
      <path
         d="m 929.08,1700.1 h 249.45 v 49.89 H 929.08 Z"
         id="path438" />
      <path
         d="m 1128.6,1500.5 h 49.89 v 249.45 h -49.89 z"
         id="path440" />
      <path
         d="m 929.08,1500.5 h 49.89 v 249.45 h -49.89 z"
         id="path442" />
      <path
         d="m 978.97,1675.2 h 24.945 v 24.945 H 978.97 Z"
         id="path444" />
      <path
         d="m 1003.9,1675.2 h 24.945 v 24.945 H 1003.9 Z"
         id="path446" />
      <path
         d="m 1053.8,1675.2 h 24.945 v 24.945 H 1053.8 Z"
         id="path448" />
      <path
         d="m 1078.8,1675.2 h 24.945 v 24.945 H 1078.8 Z"
         id="path450" />
      <path
         d="m 1103.7,1675.2 h 24.945 v 24.945 H 1103.7 Z"
         id="path452" />
      <path
         d="m 1003.9,1650.2 h 24.945 v 24.945 H 1003.9 Z"
         id="path454" />
      <path
         d="m 1053.8,1650.2 h 24.945 v 24.945 H 1053.8 Z"
         id="path456" />
      <path
         d="m 978.97,1625.3 h 24.945 v 24.945 H 978.97 Z"
         id="path458" />
      <path
         d="m 1003.9,1625.3 h 24.945 v 24.945 H 1003.9 Z"
         id="path460" />
      <path
         d="m 1028.9,1625.3 h 24.945 v 24.945 H 1028.9 Z"
         id="path462" />
      <path
         d="m 978.97,1600.3 h 24.945 v 24.945 H 978.97 Z"
         id="path464" />
      <path
         d="m 1053.8,1575.4 h 24.945 v 24.945 H 1053.8 Z"
         id="path466" />
      <path
         d="m 1103.7,1575.4 h 24.945 v 24.945 H 1103.7 Z"
         id="path468" />
      <path
         d="m 1003.9,1550.4 h 24.945 v 24.945 H 1003.9 Z"
         id="path470" />
      <path
         d="m 1078.8,1550.4 h 24.945 v 24.945 H 1078.8 Z"
         id="path472" />
      <path
         d="m 854.25,1425.7 h 74.835 v 74.835 H 854.25 Z"
         id="path474" />
      <path
         d="m 1178.5,1425.7 h 74.835 v 74.835 H 1178.5 Z"
         id="path476" />
      <path
         d="m 1178.5,1750 h 74.835 v 74.835 H 1178.5 Z"
         id="path478" />
      <path
         d="m 854.25,1750 h 74.835 v 74.835 H 854.25 Z"
         id="path480" />
      <path
         d="m 1253.4,1500.5 h 249.45 v 49.89 H 1253.4 Z"
         id="path482" />
      <path
         d="m 1253.4,1700.1 h 249.45 v 49.89 H 1253.4 Z"
         id="path484" />
      <path
         d="m 1452.9,1500.5 h 49.89 v 249.45 h -49.89 z"
         id="path486" />
      <path
         d="m 1253.4,1500.5 h 49.89 v 249.45 h -49.89 z"
         id="path488" />
      <path
         d="m 1303.3,1675.2 h 24.945 v 24.945 H 1303.3 Z"
         id="path490" />
      <path
         d="m 1328.2,1675.2 h 24.945 v 24.945 H 1328.2 Z"
         id="path492" />
      <path
         d="m 1378.1,1675.2 h 24.945 v 24.945 H 1378.1 Z"
         id="path494" />
      <path
         d="m 1403,1675.2 h 24.945 v 24.945 H 1403 Z"
         id="path496" />
      <path
         d="m 1328.2,1650.2 h 24.945 v 24.945 H 1328.2 Z"
         id="path498" />
      <path
         d="m 1353.1,1650.2 h 24.945 v 24.945 H 1353.1 Z"
         id="path500" />
      <path
         d="m 1403,1650.2 h 24.945 v 24.945 H 1403 Z"
         id="path502" />
      <path
         d="m 1328.2,1625.3 h 24.945 v 24.945 H 1328.2 Z"
         id="path504" />
      <path
         d="m 1378.1,1625.3 h 24.945 v 24.945 H 1378.1 Z"
         id="path506" />
      <path
         d="m 1303.3,1600.3 h 24.945 v 24.945 H 1303.3 Z"
         id="path508" />
      <path
         d="m 1353.1,1600.3 h 24.945 v 24.945 H 1353.1 Z"
         id="path510" />
      <path
         d="m 1378.1,1600.3 h 24.945 v 24.945 H 1378.1 Z"
         id="path512" />
      <path
         d="m 1403,1600.3 h 24.945 v 24.945 H 1403 Z"
         id="path514" />
      <path
         d="m 1428,1600.3 h 24.945 v 24.945 H 1428 Z"
         id="path516" />
      <path
         d="m 1303.3,1575.4 h 24.945 v 24.945 H 1303.3 Z"
         id="path518" />
      <path
         d="m 1353.1,1575.4 h 24.945 v 24.945 H 1353.1 Z"
         id="path520" />
      <path
         d="m 1378.1,1575.4 h 24.945 v 24.945 H 1378.1 Z"
         id="path522" />
      <path
         d="m 1403,1575.4 h 24.945 v 24.945 H 1403 Z"
         id="path524" />
      <path
         d="m 1353.1,1550.4 h 24.945 v 24.945 H 1353.1 Z"
         id="path526" />
      <path
         d="m 1378.1,1550.4 h 24.945 v 24.945 H 1378.1 Z"
         id="path528" />
      <path
         d="m 1428,1550.4 h 24.945 v 24.945 H 1428 Z"
         id="path530" />
      <path
         d="m 1178.5,1425.7 h 74.835 v 74.835 H 1178.5 Z"
         id="path532" />
      <path
         d="m 1502.8,1425.7 h 74.835 v 74.835 H 1502.8 Z"
         id="path534" />
      <path
         d="m 1502.8,1750 h 74.835 v 74.835 H 1502.8 Z"
         id="path536" />
      <path
         d="m 1178.5,1750 h 74.835 v 74.835 H 1178.5 Z"
         id="path538" />
      <path
         d="m 1577.7,1500.5 h 249.45 v 49.89 H 1577.7 Z"
         id="path540" />
      <path
         d="m 1577.7,1700.1 h 249.45 v 49.89 H 1577.7 Z"
         id="path542" />
      <path
         d="m 1777.2,1500.5 h 49.89 v 249.45 h -49.89 z"
         id="path544" />
      <path
         d="m 1577.7,1500.5 h 49.89 v 249.45 h -49.89 z"
         id="path546" />
      <path
         d="m 1627.5,1675.2 h 24.945 v 24.945 H 1627.5 Z"
         id="path548" />
      <path
         d="m 1652.5,1675.2 h 24.945 v 24.945 H 1652.5 Z"
         id="path550" />
      <path
         d="m 1727.3,1675.2 h 24.945 v 24.945 H 1727.3 Z"
         id="path552" />
      <path
         d="m 1627.5,1650.2 h 24.945 v 24.945 H 1627.5 Z"
         id="path554" />
      <path
         d="m 1652.5,1650.2 h 24.945 v 24.945 H 1652.5 Z"
         id="path556" />
      <path
         d="m 1702.4,1625.3 h 24.945 v 24.945 H 1702.4 Z"
         id="path558" />
      <path
         d="m 1752.3,1625.3 h 24.945 v 24.945 H 1752.3 Z"
         id="path560" />
      <path
         d="m 1627.5,1600.3 h 24.945 v 24.945 H 1627.5 Z"
         id="path562" />
      <path
         d="m 1677.4,1600.3 h 24.945 v 24.945 H 1677.4 Z"
         id="path564" />
      <path
         d="m 1702.4,1600.3 h 24.945 v 24.945 H 1702.4 Z"
         id="path566" />
      <path
         d="m 1727.3,1600.3 h 24.945 v 24.945 H 1727.3 Z"
         id="path568" />
      <path
         d="m 1652.5,1575.4 h 24.945 v 24.945 H 1652.5 Z"
         id="path570" />
      <path
         d="m 1752.3,1575.4 h 24.945 v 24.945 H 1752.3 Z"
         id="path572" />
      <path
         d="m 1627.5,1550.4 h 24.945 v 24.945 H 1627.5 Z"
         id="path574" />
      <path
         d="m 1652.5,1550.4 h 24.945 v 24.945 H 1652.5 Z"
         id="path576" />
      <path
         d="m 1677.4,1550.4 h 24.945 v 24.945 H 1677.4 Z"
         id="path578" />
      <path
         d="m 1752.3,1550.4 h 24.945 v 24.945 H 1752.3 Z"
         id="path580" />
      <path
         d="m 1502.8,1425.7 h 74.835 v 74.835 H 1502.8 Z"
         id="path582" />
      <path
         d="m 1827.1,1425.7 h 74.835 v 74.835 H 1827.1 Z"
         id="path584" />
      <path
         d="m 1827.1,1750 h 74.835 v 74.835 H 1827.1 Z"
         id="path586" />
      <path
         d="m 1502.8,1750 h 74.835 v 74.835 H 1502.8 Z"
         id="path588" />
      <path
         d="m 1901.9,1500.5 h 249.45 v 49.89 H 1901.9 Z"
         id="path590" />
      <path
         d="m 1901.9,1700.1 h 249.45 v 49.89 H 1901.9 Z"
         id="path592" />
      <path
         d="m 2101.5,1500.5 h 49.89 v 249.45 h -49.89 z"
         id="path594" />
      <path
         d="m 1901.9,1500.5 h 49.89 v 249.45 h -49.89 z"
         id="path596" />
      <path
         d="m 1951.8,1675.2 h 24.945 v 24.945 H 1951.8 Z"
         id="path598" />
      <path
         d="m 1976.8,1675.2 h 24.945 v 24.945 H 1976.8 Z"
         id="path600" />
      <path
         d="m 1976.8,1625.3 h 24.945 v 24.945 H 1976.8 Z"
         id="path602" />
      <path
         d="m 2001.7,1625.3 h 24.945 v 24.945 H 2001.7 Z"
         id="path604" />
      <path
         d="m 2051.6,1625.3 h 24.945 v 24.945 H 2051.6 Z"
         id="path606" />
      <path
         d="m 1976.8,1600.3 h 24.945 v 24.945 H 1976.8 Z"
         id="path608" />
      <path
         d="m 2001.7,1600.3 h 24.945 v 24.945 H 2001.7 Z"
         id="path610" />
      <path
         d="m 2026.7,1600.3 h 24.945 v 24.945 H 2026.7 Z"
         id="path612" />
      <path
         d="m 2076.5,1600.3 h 24.945 v 24.945 H 2076.5 Z"
         id="path614" />
      <path
         d="m 2001.7,1575.4 h 24.945 v 24.945 H 2001.7 Z"
         id="path616" />
      <path
         d="m 2026.7,1575.4 h 24.945 v 24.945 H 2026.7 Z"
         id="path618" />
      <path
         d="m 1951.8,1550.4 h 24.945 v 24.945 H 1951.8 Z"
         id="path620" />
      <path
         d="m 2001.7,1550.4 h 24.945 v 24.945 H 2001.7 Z"
         id="path622" />
      <path
         d="m 2051.6,1550.4 h 24.945 v 24.945 H 2051.6 Z"
         id="path624" />
      <path
         d="m 1827.1,1425.7 h 74.835 v 74.835 H 1827.1 Z"
         id="path626" />
      <path
         d="m 2151.4,1425.7 h 74.834 v 74.835 H 2151.4 Z"
         id="path628" />
      <path
         d="m 2151.4,1750 h 74.834 v 74.835 H 2151.4 Z"
         id="path630" />
      <path
         d="m 1827.1,1750 h 74.835 v 74.835 H 1827.1 Z"
         id="path632" />
      <path
         d="m 280.52,1824.8 h 249.45 v 49.89 H 280.52 Z"
         id="path634" />
      <path
         d="m 280.52,2024.4 h 249.45 v 49.89 H 280.52 Z"
         id="path636" />
      <path
         d="m 480.08,1824.8 h 49.89 v 249.45 h -49.89 z"
         id="path638" />
      <path
         d="m 280.52,1824.8 h 49.89 v 249.45 h -49.89 z"
         id="path640" />
      <path
         d="m 330.41,1999.4 h 24.945 v 24.945 H 330.41 Z"
         id="path642" />
      <path
         d="m 380.3,1999.4 h 24.945 v 24.945 H 380.3 Z"
         id="path644" />
      <path
         d="m 405.24,1999.4 h 24.945 v 24.945 H 405.24 Z"
         id="path646" />
      <path
         d="m 430.19,1999.4 h 24.945 v 24.945 H 430.19 Z"
         id="path648" />
      <path
         d="m 455.13,1999.4 h 24.945 v 24.945 H 455.13 Z"
         id="path650" />
      <path
         d="m 405.24,1974.5 h 24.945 v 24.945 H 405.24 Z"
         id="path652" />
      <path
         d="m 455.13,1974.5 h 24.945 v 24.945 H 455.13 Z"
         id="path654" />
      <path
         d="m 330.41,1949.6 h 24.945 v 24.945 H 330.41 Z"
         id="path656" />
      <path
         d="m 355.35,1949.6 h 24.945 v 24.945 H 355.35 Z"
         id="path658" />
      <path
         d="m 405.24,1949.6 h 24.945 v 24.945 H 405.24 Z"
         id="path660" />
      <path
         d="m 430.19,1949.6 h 24.945 v 24.945 H 430.19 Z"
         id="path662" />
      <path
         d="m 330.41,1924.6 h 24.945 v 24.945 H 330.41 Z"
         id="path664" />
      <path
         d="m 380.3,1924.6 h 24.945 v 24.945 H 380.3 Z"
         id="path666" />
      <path
         d="m 405.24,1924.6 h 24.945 v 24.945 H 405.24 Z"
         id="path668" />
      <path
         d="m 330.41,1899.7 h 24.945 v 24.945 H 330.41 Z"
         id="path670" />
      <path
         d="m 355.35,1899.7 h 24.945 v 24.945 H 355.35 Z"
         id="path672" />
      <path
         d="m 405.24,1899.7 h 24.945 v 24.945 H 405.24 Z"
         id="path674" />
      <path
         d="m 455.13,1899.7 h 24.945 v 24.945 H 455.13 Z"
         id="path676" />
      <path
         d="m 330.41,1874.7 h 24.945 v 24.945 H 330.41 Z"
         id="path678" />
      <path
         d="m 405.24,1874.7 h 24.945 v 24.945 H 405.24 Z"
         id="path680" />
      <path
         d="m 455.13,1874.7 h 24.945 v 24.945 H 455.13 Z"
         id="path682" />
      <path
         d="m 205.68,1750 h 74.835 v 74.835 H 205.68 Z"
         id="path684" />
      <path
         d="m 529.97,1750 h 74.835 v 74.835 H 529.97 Z"
         id="path686" />
      <path
         d="m 529.97,2074.3 h 74.835 v 74.835 H 529.97 Z"
         id="path688" />
      <path
         d="m 205.68,2074.3 h 74.835 v 74.835 H 205.68 Z"
         id="path690" />
      <path
         d="m 604.8,1824.8 h 249.45 v 49.89 H 604.8 Z"
         id="path692" />
      <path
         d="m 604.8,2024.4 h 249.45 v 49.89 H 604.8 Z"
         id="path694" />
      <path
         d="m 804.36,1824.8 h 49.89 v 249.45 h -49.89 z"
         id="path696" />
      <path
         d="m 604.8,1824.8 h 49.89 v 249.45 H 604.8 Z"
         id="path698" />
      <path
         d="m 654.69,1999.4 h 24.945 v 24.945 H 654.69 Z"
         id="path700" />
      <path
         d="m 704.58,1999.4 h 24.945 v 24.945 H 704.58 Z"
         id="path702" />
      <path
         d="m 729.52,1999.4 h 24.945 v 24.945 H 729.52 Z"
         id="path704" />
      <path
         d="m 754.47,1999.4 h 24.945 v 24.945 H 754.47 Z"
         id="path706" />
      <path
         d="m 704.58,1974.5 h 24.945 v 24.945 H 704.58 Z"
         id="path708" />
      <path
         d="m 754.47,1974.5 h 24.945 v 24.945 H 754.47 Z"
         id="path710" />
      <path
         d="m 779.42,1974.5 h 24.945 v 24.945 H 779.42 Z"
         id="path712" />
      <path
         d="m 679.64,1949.6 h 24.945 v 24.945 H 679.64 Z"
         id="path714" />
      <path
         d="m 754.47,1949.6 h 24.945 v 24.945 H 754.47 Z"
         id="path716" />
      <path
         d="m 654.69,1924.6 h 24.945 v 24.945 H 654.69 Z"
         id="path718" />
      <path
         d="m 679.64,1924.6 h 24.945 v 24.945 H 679.64 Z"
         id="path720" />
      <path
         d="m 704.58,1924.6 h 24.945 v 24.945 H 704.58 Z"
         id="path722" />
      <path
         d="m 729.52,1924.6 h 24.945 v 24.945 H 729.52 Z"
         id="path724" />
      <path
         d="m 679.64,1899.7 h 24.945 v 24.945 H 679.64 Z"
         id="path726" />
      <path
         d="m 704.58,1899.7 h 24.945 v 24.945 H 704.58 Z"
         id="path728" />
      <path
         d="m 729.52,1899.7 h 24.945 v 24.945 H 729.52 Z"
         id="path730" />
      <path
         d="m 754.47,1899.7 h 24.945 v 24.945 H 754.47 Z"
         id="path732" />
      <path
         d="m 654.69,1874.7 h 24.945 v 24.945 H 654.69 Z"
         id="path734" />
      <path
         d="m 529.97,1750 h 74.835 v 74.835 H 529.97 Z"
         id="path736" />
      <path
         d="m 854.25,1750 h 74.835 v 74.835 H 854.25 Z"
         id="path738" />
      <path
         d="m 854.25,2074.3 h 74.835 v 74.835 H 854.25 Z"
         id="path740" />
      <path
         d="m 529.97,2074.3 h 74.835 v 74.835 H 529.97 Z"
         id="path742" />
      <path
         d="m 929.08,1824.8 h 249.45 v 49.89 H 929.08 Z"
         id="path744" />
      <path
         d="m 929.08,2024.4 h 249.45 v 49.89 H 929.08 Z"
         id="path746" />
      <path
         d="m 1128.6,1824.8 h 49.89 v 249.45 h -49.89 z"
         id="path748" />
      <path
         d="m 929.08,1824.8 h 49.89 v 249.45 h -49.89 z"
         id="path750" />
      <path
         d="m 978.97,1999.4 h 24.945 v 24.945 H 978.97 Z"
         id="path752" />
      <path
         d="m 1028.9,1999.4 h 24.945 v 24.945 H 1028.9 Z"
         id="path754" />
      <path
         d="m 1053.8,1999.4 h 24.945 v 24.945 H 1053.8 Z"
         id="path756" />
      <path
         d="m 1003.9,1974.5 h 24.945 v 24.945 H 1003.9 Z"
         id="path758" />
      <path
         d="m 1053.8,1974.5 h 24.945 v 24.945 H 1053.8 Z"
         id="path760" />
      <path
         d="m 1078.8,1974.5 h 24.945 v 24.945 H 1078.8 Z"
         id="path762" />
      <path
         d="m 1028.9,1949.6 h 24.945 v 24.945 H 1028.9 Z"
         id="path764" />
      <path
         d="m 1078.8,1949.6 h 24.945 v 24.945 H 1078.8 Z"
         id="path766" />
      <path
         d="m 1103.7,1949.6 h 24.945 v 24.945 H 1103.7 Z"
         id="path768" />
      <path
         d="m 1003.9,1924.6 h 24.945 v 24.945 H 1003.9 Z"
         id="path770" />
      <path
         d="m 1028.9,1924.6 h 24.945 v 24.945 H 1028.9 Z"
         id="path772" />
      <path
         d="m 1078.8,1924.6 h 24.945 v 24.945 H 1078.8 Z"
         id="path774" />
      <path
         d="m 1103.7,1924.6 h 24.945 v 24.945 H 1103.7 Z"
         id="path776" />
      <path
         d="m 978.97,1899.7 h 24.945 v 24.945 H 978.97 Z"
         id="path778" />
      <path
         d="m 1003.9,1899.7 h 24.945 v 24.945 H 1003.9 Z"
         id="path780" />
      <path
         d="m 1003.9,1874.7 h 24.945 v 24.945 H 1003.9 Z"
         id="path782" />
      <path
         d="m 1053.8,1874.7 h 24.945 v 24.945 H 1053.8 Z"
         id="path784" />
      <path
         d="m 1078.8,1874.7 h 24.945 v 24.945 H 1078.8 Z"
         id="path786" />
      <path
         d="m 854.25,1750 h 74.835 v 74.835 H 854.25 Z"
         id="path788" />
      <path
         d="m 1178.5,1750 h 74.835 v 74.835 H 1178.5 Z"
         id="path790" />
      <path
         d="m 1178.5,2074.3 h 74.835 v 74.835 H 1178.5 Z"
         id="path792" />
      <path
         d="m 854.25,2074.3 h 74.835 v 74.835 H 854.25 Z"
         id="path794" />
      <path
         d="m 1253.4,1824.8 h 249.45 v 49.89 H 1253.4 Z"
         id="path796" />
      <path
         d="m 1253.4,2024.4 h 249.45 v 49.89 H 1253.4 Z"
         id="path798" />
      <path
         d="m 1452.9,1824.8 h 49.89 v 249.45 h -49.89 z"
         id="path800" />
      <path
         d="m 1253.4,1824.8 h 49.89 v 249.45 h -49.89 z"
         id="path802" />
      <path
         d="m 1303.3,1999.4 h 24.945 v 24.945 H 1303.3 Z"
         id="path804" />
      <path
         d="m 1353.1,1999.4 h 24.945 v 24.945 H 1353.1 Z"
         id="path806" />
      <path
         d="m 1403,1999.4 h 24.945 v 24.945 H 1403 Z"
         id="path808" />
      <path
         d="m 1428,1999.4 h 24.945 v 24.945 H 1428 Z"
         id="path810" />
      <path
         d="m 1328.2,1974.5 h 24.945 v 24.945 H 1328.2 Z"
         id="path812" />
      <path
         d="m 1353.1,1974.5 h 24.945 v 24.945 H 1353.1 Z"
         id="path814" />
      <path
         d="m 1403,1974.5 h 24.945 v 24.945 H 1403 Z"
         id="path816" />
      <path
         d="m 1428,1974.5 h 24.945 v 24.945 H 1428 Z"
         id="path818" />
      <path
         d="m 1303.3,1949.6 h 24.945 v 24.945 H 1303.3 Z"
         id="path820" />
      <path
         d="m 1378.1,1949.6 h 24.945 v 24.945 H 1378.1 Z"
         id="path822" />
      <path
         d="m 1403,1949.6 h 24.945 v 24.945 H 1403 Z"
         id="path824" />
      <path
         d="m 1428,1949.6 h 24.945 v 24.945 H 1428 Z"
         id="path826" />
      <path
         d="m 1303.3,1924.6 h 24.945 v 24.945 H 1303.3 Z"
         id="path828" />
      <path
         d="m 1353.1,1924.6 h 24.945 v 24.945 H 1353.1 Z"
         id="path830" />
      <path
         d="m 1403,1924.6 h 24.945 v 24.945 H 1403 Z"
         id="path832" />
      <path
         d="m 1428,1924.6 h 24.945 v 24.945 H 1428 Z"
         id="path834" />
      <path
         d="m 1328.2,1899.7 h 24.945 v 24.945 H 1328.2 Z"
         id="path836" />
      <path
         d="m 1353.1,1899.7 h 24.945 v 24.945 H 1353.1 Z"
         id="path838" />
      <path
         d="m 1428,1899.7 h 24.945 v 24.945 H 1428 Z"
         id="path840" />
      <path
         d="m 1328.2,1874.7 h 24.945 v 24.945 H 1328.2 Z"
         id="path842" />
      <path
         d="m 1428,1874.7 h 24.945 v 24.945 H 1428 Z"
         id="path844" />
      <path
         d="m 1178.5,1750 h 74.835 v 74.835 H 1178.5 Z"
         id="path846" />
      <path
         d="m 1502.8,1750 h 74.835 v 74.835 H 1502.8 Z"
         id="path848" />
      <path
         d="m 1502.8,2074.3 h 74.835 v 74.835 H 1502.8 Z"
         id="path850" />
      <path
         d="m 1178.5,2074.3 h 74.835 v 74.835 H 1178.5 Z"
         id="path852" />
      <path
         d="m 1577.7,1824.8 h 249.45 v 49.89 H 1577.7 Z"
         id="path854" />
      <path
         d="m 1577.7,2024.4 h 249.45 v 49.89 H 1577.7 Z"
         id="path856" />
      <path
         d="m 1777.2,1824.8 h 49.89 v 249.45 h -49.89 z"
         id="path858" />
      <path
         d="m 1577.7,1824.8 h 49.89 v 249.45 h -49.89 z"
         id="path860" />
      <path
         d="m 1627.5,1999.4 h 24.945 v 24.945 H 1627.5 Z"
         id="path862" />
      <path
         d="m 1677.4,1999.4 h 24.945 v 24.945 H 1677.4 Z"
         id="path864" />
      <path
         d="m 1752.3,1999.4 h 24.945 v 24.945 H 1752.3 Z"
         id="path866" />
      <path
         d="m 1627.5,1974.5 h 24.945 v 24.945 H 1627.5 Z"
         id="path868" />
      <path
         d="m 1702.4,1974.5 h 24.945 v 24.945 H 1702.4 Z"
         id="path870" />
      <path
         d="m 1727.3,1974.5 h 24.945 v 24.945 H 1727.3 Z"
         id="path872" />
      <path
         d="m 1627.5,1949.6 h 24.945 v 24.945 H 1627.5 Z"
         id="path874" />
      <path
         d="m 1677.4,1924.6 h 24.945 v 24.945 H 1677.4 Z"
         id="path876" />
      <path
         d="m 1727.3,1924.6 h 24.945 v 24.945 H 1727.3 Z"
         id="path878" />
      <path
         d="m 1627.5,1899.7 h 24.945 v 24.945 H 1627.5 Z"
         id="path880" />
      <path
         d="m 1677.4,1899.7 h 24.945 v 24.945 H 1677.4 Z"
         id="path882" />
      <path
         d="m 1727.3,1899.7 h 24.945 v 24.945 H 1727.3 Z"
         id="path884" />
      <path
         d="m 1752.3,1899.7 h 24.945 v 24.945 H 1752.3 Z"
         id="path886" />
      <path
         d="m 1702.4,1874.7 h 24.945 v 24.945 H 1702.4 Z"
         id="path888" />
      <path
         d="m 1727.3,1874.7 h 24.945 v 24.945 H 1727.3 Z"
         id="path890" />
      <path
         d="m 1752.3,1874.7 h 24.945 v 24.945 H 1752.3 Z"
         id="path892" />
      <path
         d="m 1502.8,1750 h 74.835 v 74.835 H 1502.8 Z"
         id="path894" />
      <path
         d="m 1827.1,1750 h 74.835 v 74.835 H 1827.1 Z"
         id="path896" />
      <path
         d="m 1827.1,2074.3 h 74.835 v 74.835 H 1827.1 Z"
         id="path898" />
      <path
         d="m 1502.8,2074.3 h 74.835 v 74.835 H 1502.8 Z"
         id="path900" />
      <path
         d="m 1901.9,1824.8 h 249.45 v 49.89 H 1901.9 Z"
         id="path902" />
      <path
         d="m 1901.9,2024.4 h 249.45 v 49.89 H 1901.9 Z"
         id="path904" />
      <path
         d="m 2101.5,1824.8 h 49.89 v 249.45 h -49.89 z"
         id="path906" />
      <path
         d="m 1901.9,1824.8 h 49.89 v 249.45 h -49.89 z"
         id="path908" />
      <path
         d="m 1951.8,1999.4 h 24.945 v 24.945 H 1951.8 Z"
         id="path910" />
      <path
         d="m 2026.7,1999.4 h 24.945 v 24.945 H 2026.7 Z"
         id="path912" />
      <path
         d="m 2076.5,1999.4 h 24.945 v 24.945 H 2076.5 Z"
         id="path914" />
      <path
         d="m 1951.8,1974.5 h 24.945 v 24.945 H 1951.8 Z"
         id="path916" />
      <path
         d="m 1976.8,1974.5 h 24.945 v 24.945 H 1976.8 Z"
         id="path918" />
      <path
         d="m 2001.7,1974.5 h 24.945 v 24.945 H 2001.7 Z"
         id="path920" />
      <path
         d="m 2026.7,1974.5 h 24.945 v 24.945 H 2026.7 Z"
         id="path922" />
      <path
         d="m 1976.8,1949.6 h 24.945 v 24.945 H 1976.8 Z"
         id="path924" />
      <path
         d="m 2076.5,1949.6 h 24.945 v 24.945 H 2076.5 Z"
         id="path926" />
      <path
         d="m 2001.7,1924.6 h 24.945 v 24.945 H 2001.7 Z"
         id="path928" />
      <path
         d="m 2076.5,1924.6 h 24.945 v 24.945 H 2076.5 Z"
         id="path930" />
      <path
         d="m 2001.7,1899.7 h 24.945 v 24.945 H 2001.7 Z"
         id="path932" />
      <path
         d="m 2026.7,1899.7 h 24.945 v 24.945 H 2026.7 Z"
         id="path934" />
      <path
         d="m 2051.6,1899.7 h 24.945 v 24.945 H 2051.6 Z"
         id="path936" />
      <path
         d="m 1951.8,1874.7 h 24.945 v 24.945 H 1951.8 Z"
         id="path938" />
      <path
         d="m 1976.8,1874.7 h 24.945 v 24.945 H 1976.8 Z"
         id="path940" />
      <path
         d="m 2051.6,1874.7 h 24.945 v 24.945 H 2051.6 Z"
         id="path942" />
      <path
         d="m 2076.5,1874.7 h 24.945 v 24.945 H 2076.5 Z"
         id="path944" />
      <path
         d="m 1827.1,1750 h 74.835 v 74.835 H 1827.1 Z"
         id="path946" />
      <path
         d="m 2151.4,1750 h 74.834 v 74.835 H 2151.4 Z"
         id="path948" />
      <path
         d="m 2151.4,2074.3 h 74.834 v 74.835 H 2151.4 Z"
         id="path950" />
      <path
         d="m 1827.1,2074.3 h 74.835 v 74.835 H 1827.1 Z"
         id="path952" />
      <path
         d="m 280.52,2149.1 h 249.45 v 49.89 H 280.52 Z"
         id="path954" />
      <path
         d="m 280.52,2348.7 h 249.45 v 49.89 H 280.52 Z"
         id="path956" />
      <path
         d="m 480.08,2149.1 h 49.89 v 249.45 h -49.89 z"
         id="path958" />
      <path
         d="m 280.52,2149.1 h 49.89 v 249.45 h -49.89 z"
         id="path960" />
      <path
         d="m 330.41,2323.7 h 24.945 v 24.945 H 330.41 Z"
         id="path962" />
      <path
         d="m 405.24,2323.7 h 24.945 v 24.945 H 405.24 Z"
         id="path964" />
      <path
         d="m 455.13,2323.7 h 24.945 v 24.945 H 455.13 Z"
         id="path966" />
      <path
         d="m 455.13,2298.8 h 24.945 v 24.945 H 455.13 Z"
         id="path968" />
      <path
         d="m 330.41,2273.8 h 24.945 v 24.945 H 330.41 Z"
         id="path970" />
      <path
         d="m 380.3,2273.8 h 24.945 v 24.945 H 380.3 Z"
         id="path972" />
      <path
         d="m 405.24,2273.8 h 24.945 v 24.945 H 405.24 Z"
         id="path974" />
      <path
         d="m 455.13,2273.8 h 24.945 v 24.945 H 455.13 Z"
         id="path976" />
      <path
         d="m 355.35,2248.9 h 24.945 v 24.945 H 355.35 Z"
         id="path978" />
      <path
         d="m 380.3,2248.9 h 24.945 v 24.945 H 380.3 Z"
         id="path980" />
      <path
         d="m 330.41,2224 h 24.945 v 24.945 H 330.41 Z"
         id="path982" />
      <path
         d="m 355.35,2224 h 24.945 v 24.945 H 355.35 Z"
         id="path984" />
      <path
         d="m 405.24,2224 h 24.945 v 24.945 H 405.24 Z"
         id="path986" />
      <path
         d="m 430.19,2224 h 24.945 v 24.945 H 430.19 Z"
         id="path988" />
      <path
         d="m 455.13,2224 h 24.945 v 24.945 H 455.13 Z"
         id="path990" />
      <path
         d="m 330.41,2199 h 24.945 v 24.945 H 330.41 Z"
         id="path992" />
      <path
         d="m 380.3,2199 h 24.945 v 24.945 H 380.3 Z"
         id="path994" />
      <path
         d="m 405.24,2199 h 24.945 v 24.945 H 405.24 Z"
         id="path996" />
      <path
         d="m 430.19,2199 h 24.945 v 24.945 H 430.19 Z"
         id="path998" />
      <path
         d="m 205.68,2074.3 h 74.835 v 74.835 H 205.68 Z"
         id="path1000" />
      <path
         d="m 529.97,2074.3 h 74.835 v 74.835 H 529.97 Z"
         id="path1002" />
      <path
         d="m 529.97,2398.6 h 74.835 v 74.835 H 529.97 Z"
         id="path1004" />
      <path
         d="m 205.68,2398.6 h 74.835 v 74.835 H 205.68 Z"
         id="path1006" />
      <path
         d="m 604.8,2149.1 h 249.45 v 49.89 H 604.8 Z"
         id="path1008" />
      <path
         d="m 604.8,2348.7 h 249.45 v 49.89 H 604.8 Z"
         id="path1010" />
      <path
         d="m 804.36,2149.1 h 49.89 v 249.45 h -49.89 z"
         id="path1012" />
      <path
         d="m 604.8,2149.1 h 49.89 v 249.45 H 604.8 Z"
         id="path1014" />
      <path
         d="m 654.69,2323.7 h 24.945 v 24.945 H 654.69 Z"
         id="path1016" />
      <path
         d="m 679.64,2298.8 h 24.945 v 24.945 H 679.64 Z"
         id="path1018" />
      <path
         d="m 704.58,2298.8 h 24.945 v 24.945 H 704.58 Z"
         id="path1020" />
      <path
         d="m 729.52,2298.8 h 24.945 v 24.945 H 729.52 Z"
         id="path1022" />
      <path
         d="m 654.69,2273.8 h 24.945 v 24.945 H 654.69 Z"
         id="path1024" />
      <path
         d="m 679.64,2273.8 h 24.945 v 24.945 H 679.64 Z"
         id="path1026" />
      <path
         d="m 704.58,2273.8 h 24.945 v 24.945 H 704.58 Z"
         id="path1028" />
      <path
         d="m 754.47,2273.8 h 24.945 v 24.945 H 754.47 Z"
         id="path1030" />
      <path
         d="m 654.69,2248.9 h 24.945 v 24.945 H 654.69 Z"
         id="path1032" />
      <path
         d="m 729.52,2248.9 h 24.945 v 24.945 H 729.52 Z"
         id="path1034" />
      <path
         d="m 754.47,2248.9 h 24.945 v 24.945 H 754.47 Z"
         id="path1036" />
      <path
         d="m 779.42,2248.9 h 24.945 v 24.945 H 779.42 Z"
         id="path1038" />
      <path
         d="m 729.52,2224 h 24.945 v 24.945 H 729.52 Z"
         id="path1040" />
      <path
         d="m 679.64,2199 h 24.945 v 24.945 H 679.64 Z"
         id="path1042" />
      <path
         d="m 729.52,2199 h 24.945 v 24.945 H 729.52 Z"
         id="path1044" />
      <path
         d="m 779.42,2199 h 24.945 v 24.945 H 779.42 Z"
         id="path1046" />
      <path
         d="m 529.97,2074.3 h 74.835 v 74.835 H 529.97 Z"
         id="path1048" />
      <path
         d="m 854.25,2074.3 h 74.835 v 74.835 H 854.25 Z"
         id="path1050" />
      <path
         d="m 854.25,2398.6 h 74.835 v 74.835 H 854.25 Z"
         id="path1052" />
      <path
         d="m 529.97,2398.6 h 74.835 v 74.835 H 529.97 Z"
         id="path1054" />
      <path
         d="m 929.08,2149.1 h 249.45 v 49.89 H 929.08 Z"
         id="path1056" />
      <path
         d="m 929.08,2348.7 h 249.45 v 49.89 H 929.08 Z"
         id="path1058" />
      <path
         d="m 1128.6,2149.1 h 49.89 v 249.45 h -49.89 z"
         id="path1060" />
      <path
         d="m 929.08,2149.1 h 49.89 v 249.45 h -49.89 z"
         id="path1062" />
      <path
         d="m 1003.9,2323.7 h 24.945 v 24.945 H 1003.9 Z"
         id="path1064" />
      <path
         d="m 1028.9,2323.7 h 24.945 v 24.945 H 1028.9 Z"
         id="path1066" />
      <path
         d="m 1053.8,2323.7 h 24.945 v 24.945 H 1053.8 Z"
         id="path1068" />
      <path
         d="m 1078.8,2323.7 h 24.945 v 24.945 H 1078.8 Z"
         id="path1070" />
      <path
         d="m 1103.7,2323.7 h 24.945 v 24.945 H 1103.7 Z"
         id="path1072" />
      <path
         d="m 978.97,2298.8 h 24.945 v 24.945 H 978.97 Z"
         id="path1074" />
      <path
         d="m 1078.8,2298.8 h 24.945 v 24.945 H 1078.8 Z"
         id="path1076" />
      <path
         d="m 1003.9,2273.8 h 24.945 v 24.945 H 1003.9 Z"
         id="path1078" />
      <path
         d="m 1053.8,2273.8 h 24.945 v 24.945 H 1053.8 Z"
         id="path1080" />
      <path
         d="m 1078.8,2273.8 h 24.945 v 24.945 H 1078.8 Z"
         id="path1082" />
      <path
         d="m 978.97,2248.9 h 24.945 v 24.945 H 978.97 Z"
         id="path1084" />
      <path
         d="m 1003.9,2248.9 h 24.945 v 24.945 H 1003.9 Z"
         id="path1086" />
      <path
         d="m 1053.8,2248.9 h 24.945 v 24.945 H 1053.8 Z"
         id="path1088" />
      <path
         d="m 1078.8,2248.9 h 24.945 v 24.945 H 1078.8 Z"
         id="path1090" />
      <path
         d="m 978.97,2224 h 24.945 v 24.945 H 978.97 Z"
         id="path1092" />
      <path
         d="m 1028.9,2224 h 24.945 v 24.945 H 1028.9 Z"
         id="path1094" />
      <path
         d="m 1053.8,2224 h 24.945 v 24.945 H 1053.8 Z"
         id="path1096" />
      <path
         d="m 1103.7,2224 h 24.945 v 24.945 H 1103.7 Z"
         id="path1098" />
      <path
         d="m 1003.9,2199 h 24.945 v 24.945 H 1003.9 Z"
         id="path1100" />
      <path
         d="m 854.25,2074.3 h 74.835 v 74.835 H 854.25 Z"
         id="path1102" />
      <path
         d="m 1178.5,2074.3 h 74.835 v 74.835 H 1178.5 Z"
         id="path1104" />
      <path
         d="m 1178.5,2398.6 h 74.835 v 74.835 H 1178.5 Z"
         id="path1106" />
      <path
         d="m 854.25,2398.6 h 74.835 v 74.835 H 854.25 Z"
         id="path1108" />
      <path
         d="m 1253.4,2149.1 h 249.45 v 49.89 H 1253.4 Z"
         id="path1110" />
      <path
         d="m 1253.4,2348.7 h 249.45 v 49.89 H 1253.4 Z"
         id="path1112" />
      <path
         d="m 1452.9,2149.1 h 49.89 v 249.45 h -49.89 z"
         id="path1114" />
      <path
         d="m 1253.4,2149.1 h 49.89 v 249.45 h -49.89 z"
         id="path1116" />
      <path
         d="m 1328.2,2323.7 h 24.945 v 24.945 H 1328.2 Z"
         id="path1118" />
      <path
         d="m 1353.1,2323.7 h 24.945 v 24.945 H 1353.1 Z"
         id="path1120" />
      <path
         d="m 1378.1,2323.7 h 24.945 v 24.945 H 1378.1 Z"
         id="path1122" />
      <path
         d="m 1403,2323.7 h 24.945 v 24.945 H 1403 Z"
         id="path1124" />
      <path
         d="m 1303.3,2298.8 h 24.945 v 24.945 H 1303.3 Z"
         id="path1126" />
      <path
         d="m 1378.1,2298.8 h 24.945 v 24.945 H 1378.1 Z"
         id="path1128" />
      <path
         d="m 1403,2298.8 h 24.945 v 24.945 H 1403 Z"
         id="path1130" />
      <path
         d="m 1428,2298.8 h 24.945 v 24.945 H 1428 Z"
         id="path1132" />
      <path
         d="m 1303.3,2273.8 h 24.945 v 24.945 H 1303.3 Z"
         id="path1134" />
      <path
         d="m 1328.2,2273.8 h 24.945 v 24.945 H 1328.2 Z"
         id="path1136" />
      <path
         d="m 1403,2273.8 h 24.945 v 24.945 H 1403 Z"
         id="path1138" />
      <path
         d="m 1428,2273.8 h 24.945 v 24.945 H 1428 Z"
         id="path1140" />
      <path
         d="m 1378.1,2248.9 h 24.945 v 24.945 H 1378.1 Z"
         id="path1142" />
      <path
         d="m 1403,2248.9 h 24.945 v 24.945 H 1403 Z"
         id="path1144" />
      <path
         d="m 1328.2,2224 h 24.945 v 24.945 H 1328.2 Z"
         id="path1146" />
      <path
         d="m 1378.1,2224 h 24.945 v 24.945 H 1378.1 Z"
         id="path1148" />
      <path
         d="m 1403,2224 h 24.945 v 24.945 H 1403 Z"
         id="path1150" />
      <path
         d="m 1353.1,2199 h 24.945 v 24.945 H 1353.1 Z"
         id="path1152" />
      <path
         d="m 1403,2199 h 24.945 v 24.945 H 1403 Z"
         id="path1154" />
      <path
         d="m 1428,2199 h 24.945 v 24.945 H 1428 Z"
         id="path1156" />
      <path
         d="m 1178.5,2074.3 h 74.835 v 74.835 H 1178.5 Z"
         id="path1158" />
      <path
         d="m 1502.8,2074.3 h 74.835 v 74.835 H 1502.8 Z"
         id="path1160" />
      <path
         d="m 1502.8,2398.6 h 74.835 v 74.835 H 1502.8 Z"
         id="path1162" />
      <path
         d="m 1178.5,2398.6 h 74.835 v 74.835 H 1178.5 Z"
         id="path1164" />
      <path
         d="m 1577.7,2149.1 h 249.45 v 49.89 H 1577.7 Z"
         id="path1166" />
      <path
         d="m 1577.7,2348.7 h 249.45 v 49.89 H 1577.7 Z"
         id="path1168" />
      <path
         d="m 1777.2,2149.1 h 49.89 v 249.45 h -49.89 z"
         id="path1170" />
      <path
         d="m 1577.7,2149.1 h 49.89 v 249.45 h -49.89 z"
         id="path1172" />
      <path
         d="m 1652.5,2323.7 h 24.945 v 24.945 H 1652.5 Z"
         id="path1174" />
      <path
         d="m 1677.4,2323.7 h 24.945 v 24.945 H 1677.4 Z"
         id="path1176" />
      <path
         d="m 1702.4,2323.7 h 24.945 v 24.945 H 1702.4 Z"
         id="path1178" />
      <path
         d="m 1627.5,2298.8 h 24.945 v 24.945 H 1627.5 Z"
         id="path1180" />
      <path
         d="m 1652.5,2298.8 h 24.945 v 24.945 H 1652.5 Z"
         id="path1182" />
      <path
         d="m 1727.3,2298.8 h 24.945 v 24.945 H 1727.3 Z"
         id="path1184" />
      <path
         d="m 1627.5,2273.8 h 24.945 v 24.945 H 1627.5 Z"
         id="path1186" />
      <path
         d="m 1677.4,2273.8 h 24.945 v 24.945 H 1677.4 Z"
         id="path1188" />
      <path
         d="m 1727.3,2273.8 h 24.945 v 24.945 H 1727.3 Z"
         id="path1190" />
      <path
         d="m 1752.3,2273.8 h 24.945 v 24.945 H 1752.3 Z"
         id="path1192" />
      <path
         d="m 1627.5,2248.9 h 24.945 v 24.945 H 1627.5 Z"
         id="path1194" />
      <path
         d="m 1702.4,2248.9 h 24.945 v 24.945 H 1702.4 Z"
         id="path1196" />
      <path
         d="m 1752.3,2248.9 h 24.945 v 24.945 H 1752.3 Z"
         id="path1198" />
      <path
         d="m 1627.5,2224 h 24.945 v 24.945 H 1627.5 Z"
         id="path1200" />
      <path
         d="m 1677.4,2224 h 24.945 v 24.945 H 1677.4 Z"
         id="path1202" />
      <path
         d="m 1752.3,2199 h 24.945 v 24.945 H 1752.3 Z"
         id="path1204" />
      <path
         d="m 1502.8,2074.3 h 74.835 v 74.835 H 1502.8 Z"
         id="path1206" />
      <path
         d="m 1827.1,2074.3 h 74.835 v 74.835 H 1827.1 Z"
         id="path1208" />
      <path
         d="m 1827.1,2398.6 h 74.835 v 74.835 H 1827.1 Z"
         id="path1210" />
      <path
         d="m 1502.8,2398.6 h 74.835 v 74.835 H 1502.8 Z"
         id="path1212" />
      <path
         d="m 1901.9,2149.1 h 249.45 v 49.89 H 1901.9 Z"
         id="path1214" />
      <path
         d="m 1901.9,2348.7 h 249.45 v 49.89 H 1901.9 Z"
         id="path1216" />
      <path
         d="m 2101.5,2149.1 h 49.89 v 249.45 h -49.89 z"
         id="path1218" />
      <path
         d="m 1901.9,2149.1 h 49.89 v 249.45 h -49.89 z"
         id="path1220" />
      <path
         d="m 1976.8,2323.7 h 24.945 v 24.945 H 1976.8 Z"
         id="path1222" />
      <path
         d="m 2001.7,2323.7 h 24.945 v 24.945 H 2001.7 Z"
         id="path1224" />
      <path
         d="m 2001.7,2298.8 h 24.945 v 24.945 H 2001.7 Z"
         id="path1226" />
      <path
         d="m 2026.7,2298.8 h 24.945 v 24.945 H 2026.7 Z"
         id="path1228" />
      <path
         d="m 2076.5,2298.8 h 24.945 v 24.945 H 2076.5 Z"
         id="path1230" />
      <path
         d="m 1951.8,2273.8 h 24.945 v 24.945 H 1951.8 Z"
         id="path1232" />
      <path
         d="m 1976.8,2273.8 h 24.945 v 24.945 H 1976.8 Z"
         id="path1234" />
      <path
         d="m 2001.7,2273.8 h 24.945 v 24.945 H 2001.7 Z"
         id="path1236" />
      <path
         d="m 1951.8,2248.9 h 24.945 v 24.945 H 1951.8 Z"
         id="path1238" />
      <path
         d="m 1976.8,2248.9 h 24.945 v 24.945 H 1976.8 Z"
         id="path1240" />
      <path
         d="m 2051.6,2248.9 h 24.945 v 24.945 H 2051.6 Z"
         id="path1242" />
      <path
         d="m 2076.5,2248.9 h 24.945 v 24.945 H 2076.5 Z"
         id="path1244" />
      <path
         d="m 1951.8,2224 h 24.945 v 24.945 H 1951.8 Z"
         id="path1246" />
      <path
         d="m 1976.8,2224 h 24.945 v 24.945 H 1976.8 Z"
         id="path1248" />
      <path
         d="m 2026.7,2224 h 24.945 v 24.945 H 2026.7 Z"
         id="path1250" />
      <path
         d="m 1951.8,2199 h 24.945 v 24.945 H 1951.8 Z"
         id="path1252" />
      <path
         d="m 2001.7,2199 h 24.945 v 24.945 H 2001.7 Z"
         id="path1254" />
      <path
         d="m 1827.1,2074.3 h 74.835 v 74.835 H 1827.1 Z"
         id="path1256" />
      <path
         d="m 2151.4,2074.3 h 74.834 v 74.835 H 2151.4 Z"
         id="path1258" />
      <path
         d="m 2151.4,2398.6 h 74.834 v 74.835 H 2151.4 Z"
         id="path1260" />
      <path
         d="m 1827.1,2398.6 h 74.835 v 74.835 H 1827.1 Z"
         id="path1262" />
      <path
         d="m 280.52,2473.4 h 249.45 v 49.89 H 280.52 Z"
         id="path1264" />
      <path
         d="m 280.52,2673 h 249.45 v 49.89 H 280.52 Z"
         id="path1266" />
      <path
         d="m 480.08,2473.4 h 49.89 v 249.45 h -49.89 z"
         id="path1268" />
      <path
         d="m 280.52,2473.4 h 49.89 v 249.45 h -49.89 z"
         id="path1270" />
      <path
         d="m 355.35,2648 h 24.945 v 24.945 H 355.35 Z"
         id="path1272" />
      <path
         d="m 405.24,2648 h 24.945 v 24.945 H 405.24 Z"
         id="path1274" />
      <path
         d="m 430.19,2648 h 24.945 v 24.945 H 430.19 Z"
         id="path1276" />
      <path
         d="m 455.13,2648 h 24.945 v 24.945 H 455.13 Z"
         id="path1278" />
      <path
         d="m 355.35,2623.1 h 24.945 v 24.945 H 355.35 Z"
         id="path1280" />
      <path
         d="m 430.19,2623.1 h 24.945 v 24.945 H 430.19 Z"
         id="path1282" />
      <path
         d="m 455.13,2623.1 h 24.945 v 24.945 H 455.13 Z"
         id="path1284" />
      <path
         d="m 355.35,2598.1 h 24.945 v 24.945 H 355.35 Z"
         id="path1286" />
      <path
         d="m 405.24,2598.1 h 24.945 v 24.945 H 405.24 Z"
         id="path1288" />
      <path
         d="m 455.13,2598.1 h 24.945 v 24.945 H 455.13 Z"
         id="path1290" />
      <path
         d="m 430.19,2573.2 h 24.945 v 24.945 H 430.19 Z"
         id="path1292" />
      <path
         d="m 455.13,2573.2 h 24.945 v 24.945 H 455.13 Z"
         id="path1294" />
      <path
         d="m 355.35,2548.2 h 24.945 v 24.945 H 355.35 Z"
         id="path1296" />
      <path
         d="m 380.3,2548.2 h 24.945 v 24.945 H 380.3 Z"
         id="path1298" />
      <path
         d="m 405.24,2548.2 h 24.945 v 24.945 H 405.24 Z"
         id="path1300" />
      <path
         d="m 455.13,2548.2 h 24.945 v 24.945 H 455.13 Z"
         id="path1302" />
      <path
         d="m 330.41,2523.3 h 24.945 v 24.945 H 330.41 Z"
         id="path1304" />
      <path
         d="m 430.19,2523.3 h 24.945 v 24.945 H 430.19 Z"
         id="path1306" />
      <path
         d="m 455.13,2523.3 h 24.945 v 24.945 H 455.13 Z"
         id="path1308" />
      <path
         d="m 205.68,2398.6 h 74.835 v 74.835 H 205.68 Z"
         id="path1310" />
      <path
         d="m 529.97,2398.6 h 74.835 v 74.835 H 529.97 Z"
         id="path1312" />
      <path
         d="m 529.97,2722.8 h 74.835 v 74.835 H 529.97 Z"
         id="path1314" />
      <path
         d="m 205.68,2722.8 h 74.835 v 74.835 H 205.68 Z"
         id="path1316" />
      <path
         d="m 604.8,2473.4 h 249.45 v 49.89 H 604.8 Z"
         id="path1318" />
      <path
         d="m 604.8,2673 h 249.45 v 49.89 H 604.8 Z"
         id="path1320" />
      <path
         d="m 804.36,2473.4 h 49.89 v 249.45 h -49.89 z"
         id="path1322" />
      <path
         d="m 604.8,2473.4 h 49.89 v 249.45 H 604.8 Z"
         id="path1324" />
      <path
         d="m 679.64,2648 h 24.945 v 24.945 H 679.64 Z"
         id="path1326" />
      <path
         d="m 729.52,2648 h 24.945 v 24.945 H 729.52 Z"
         id="path1328" />
      <path
         d="m 654.69,2623.1 h 24.945 v 24.945 H 654.69 Z"
         id="path1330" />
      <path
         d="m 754.47,2623.1 h 24.945 v 24.945 H 754.47 Z"
         id="path1332" />
      <path
         d="m 779.42,2623.1 h 24.945 v 24.945 H 779.42 Z"
         id="path1334" />
      <path
         d="m 654.69,2598.1 h 24.945 v 24.945 H 654.69 Z"
         id="path1336" />
      <path
         d="m 704.58,2598.1 h 24.945 v 24.945 H 704.58 Z"
         id="path1338" />
      <path
         d="m 779.42,2598.1 h 24.945 v 24.945 H 779.42 Z"
         id="path1340" />
      <path
         d="m 654.69,2573.2 h 24.945 v 24.945 H 654.69 Z"
         id="path1342" />
      <path
         d="m 679.64,2573.2 h 24.945 v 24.945 H 679.64 Z"
         id="path1344" />
      <path
         d="m 754.47,2573.2 h 24.945 v 24.945 H 754.47 Z"
         id="path1346" />
      <path
         d="m 679.64,2548.2 h 24.945 v 24.945 H 679.64 Z"
         id="path1348" />
      <path
         d="m 704.58,2548.2 h 24.945 v 24.945 H 704.58 Z"
         id="path1350" />
      <path
         d="m 679.64,2523.3 h 24.945 v 24.945 H 679.64 Z"
         id="path1352" />
      <path
         d="m 729.52,2523.3 h 24.945 v 24.945 H 729.52 Z"
         id="path1354" />
      <path
         d="m 529.97,2398.6 h 74.835 v 74.835 H 529.97 Z"
         id="path1356" />
      <path
         d="m 854.25,2398.6 h 74.835 v 74.835 H 854.25 Z"
         id="path1358" />
      <path
         d="m 854.25,2722.8 h 74.835 v 74.835 H 854.25 Z"
         id="path1360" />
      <path
         d="m 529.97,2722.8 h 74.835 v 74.835 H 529.97 Z"
         id="path1362" />
      <path
         d="m 929.08,2473.4 h 249.45 v 49.89 H 929.08 Z"
         id="path1364" />
      <path
         d="m 929.08,2673 h 249.45 v 49.89 H 929.08 Z"
         id="path1366" />
      <path
         d="m 1128.6,2473.4 h 49.89 v 249.45 h -49.89 z"
         id="path1368" />
      <path
         d="m 929.08,2473.4 h 49.89 v 249.45 h -49.89 z"
         id="path1370" />
      <path
         d="m 1003.9,2648 h 24.945 v 24.945 H 1003.9 Z"
         id="path1372" />
      <path
         d="m 1078.8,2648 h 24.945 v 24.945 H 1078.8 Z"
         id="path1374" />
      <path
         d="m 1103.7,2648 h 24.945 v 24.945 H 1103.7 Z"
         id="path1376" />
      <path
         d="m 978.97,2623.1 h 24.945 v 24.945 H 978.97 Z"
         id="path1378" />
      <path
         d="m 1028.9,2623.1 h 24.945 v 24.945 H 1028.9 Z"
         id="path1380" />
      <path
         d="m 1103.7,2623.1 h 24.945 v 24.945 H 1103.7 Z"
         id="path1382" />
      <path
         d="m 1053.8,2598.1 h 24.945 v 24.945 H 1053.8 Z"
         id="path1384" />
      <path
         d="m 1078.8,2598.1 h 24.945 v 24.945 H 1078.8 Z"
         id="path1386" />
      <path
         d="m 1078.8,2573.2 h 24.945 v 24.945 H 1078.8 Z"
         id="path1388" />
      <path
         d="m 1103.7,2548.2 h 24.945 v 24.945 H 1103.7 Z"
         id="path1390" />
      <path
         d="m 1028.9,2523.3 h 24.945 v 24.945 H 1028.9 Z"
         id="path1392" />
      <path
         d="m 1053.8,2523.3 h 24.945 v 24.945 H 1053.8 Z"
         id="path1394" />
      <path
         d="m 1078.8,2523.3 h 24.945 v 24.945 H 1078.8 Z"
         id="path1396" />
      <path
         d="m 1103.7,2523.3 h 24.945 v 24.945 H 1103.7 Z"
         id="path1398" />
      <path
         d="m 854.25,2398.6 h 74.835 v 74.835 H 854.25 Z"
         id="path1400" />
      <path
         d="m 1178.5,2398.6 h 74.835 v 74.835 H 1178.5 Z"
         id="path1402" />
      <path
         d="m 1178.5,2722.8 h 74.835 v 74.835 H 1178.5 Z"
         id="path1404" />
      <path
         d="m 854.25,2722.8 h 74.835 v 74.835 H 854.25 Z"
         id="path1406" />
      <path
         d="m 1253.4,2473.4 h 249.45 v 49.89 H 1253.4 Z"
         id="path1408" />
      <path
         d="m 1253.4,2673 h 249.45 v 49.89 H 1253.4 Z"
         id="path1410" />
      <path
         d="m 1452.9,2473.4 h 49.89 v 249.45 h -49.89 z"
         id="path1412" />
      <path
         d="m 1253.4,2473.4 h 49.89 v 249.45 h -49.89 z"
         id="path1414" />
      <path
         d="m 1328.2,2648 h 24.945 v 24.945 H 1328.2 Z"
         id="path1416" />
      <path
         d="m 1428,2648 h 24.945 v 24.945 H 1428 Z"
         id="path1418" />
      <path
         d="m 1303.3,2623.1 h 24.945 v 24.945 H 1303.3 Z"
         id="path1420" />
      <path
         d="m 1328.2,2623.1 h 24.945 v 24.945 H 1328.2 Z"
         id="path1422" />
      <path
         d="m 1403,2623.1 h 24.945 v 24.945 H 1403 Z"
         id="path1424" />
      <path
         d="m 1428,2623.1 h 24.945 v 24.945 H 1428 Z"
         id="path1426" />
      <path
         d="m 1303.3,2598.1 h 24.945 v 24.945 H 1303.3 Z"
         id="path1428" />
      <path
         d="m 1328.2,2598.1 h 24.945 v 24.945 H 1328.2 Z"
         id="path1430" />
      <path
         d="m 1353.1,2598.1 h 24.945 v 24.945 H 1353.1 Z"
         id="path1432" />
      <path
         d="m 1378.1,2598.1 h 24.945 v 24.945 H 1378.1 Z"
         id="path1434" />
      <path
         d="m 1403,2598.1 h 24.945 v 24.945 H 1403 Z"
         id="path1436" />
      <path
         d="m 1303.3,2573.2 h 24.945 v 24.945 H 1303.3 Z"
         id="path1438" />
      <path
         d="m 1428,2573.2 h 24.945 v 24.945 H 1428 Z"
         id="path1440" />
      <path
         d="m 1328.2,2548.2 h 24.945 v 24.945 H 1328.2 Z"
         id="path1442" />
      <path
         d="m 1403,2548.2 h 24.945 v 24.945 H 1403 Z"
         id="path1444" />
      <path
         d="m 1428,2548.2 h 24.945 v 24.945 H 1428 Z"
         id="path1446" />
      <path
         d="m 1378.1,2523.3 h 24.945 v 24.945 H 1378.1 Z"
         id="path1448" />
      <path
         d="m 1428,2523.3 h 24.945 v 24.945 H 1428 Z"
         id="path1450" />
      <path
         d="m 1178.5,2398.6 h 74.835 v 74.835 H 1178.5 Z"
         id="path1452" />
      <path
         d="m 1502.8,2398.6 h 74.835 v 74.835 H 1502.8 Z"
         id="path1454" />
      <path
         d="m 1502.8,2722.8 h 74.835 v 74.835 H 1502.8 Z"
         id="path1456" />
      <path
         d="m 1178.5,2722.8 h 74.835 v 74.835 H 1178.5 Z"
         id="path1458" />
      <path
         d="m 1577.7,2473.4 h 249.45 v 49.89 H 1577.7 Z"
         id="path1460" />
      <path
         d="m 1577.7,2673 h 249.45 v 49.89 H 1577.7 Z"
         id="path1462" />
      <path
         d="m 1777.2,2473.4 h 49.89 v 249.45 h -49.89 z"
         id="path1464" />
      <path
         d="m 1577.7,2473.4 h 49.89 v 249.45 h -49.89 z"
         id="path1466" />
      <path
         d="m 1677.4,2648 h 24.945 v 24.945 H 1677.4 Z"
         id="path1468" />
      <path
         d="m 1727.3,2648 h 24.945 v 24.945 H 1727.3 Z"
         id="path1470" />
      <path
         d="m 1752.3,2648 h 24.945 v 24.945 H 1752.3 Z"
         id="path1472" />
      <path
         d="m 1652.5,2623.1 h 24.945 v 24.945 H 1652.5 Z"
         id="path1474" />
      <path
         d="m 1677.4,2623.1 h 24.945 v 24.945 H 1677.4 Z"
         id="path1476" />
      <path
         d="m 1727.3,2623.1 h 24.945 v 24.945 H 1727.3 Z"
         id="path1478" />
      <path
         d="m 1702.4,2598.1 h 24.945 v 24.945 H 1702.4 Z"
         id="path1480" />
      <path
         d="m 1677.4,2573.2 h 24.945 v 24.945 H 1677.4 Z"
         id="path1482" />
      <path
         d="m 1702.4,2573.2 h 24.945 v 24.945 H 1702.4 Z"
         id="path1484" />
      <path
         d="m 1727.3,2573.2 h 24.945 v 24.945 H 1727.3 Z"
         id="path1486" />
      <path
         d="m 1627.5,2548.2 h 24.945 v 24.945 H 1627.5 Z"
         id="path1488" />
      <path
         d="m 1652.5,2548.2 h 24.945 v 24.945 H 1652.5 Z"
         id="path1490" />
      <path
         d="m 1752.3,2548.2 h 24.945 v 24.945 H 1752.3 Z"
         id="path1492" />
      <path
         d="m 1627.5,2523.3 h 24.945 v 24.945 H 1627.5 Z"
         id="path1494" />
      <path
         d="m 1727.3,2523.3 h 24.945 v 24.945 H 1727.3 Z"
         id="path1496" />
      <path
         d="m 1502.8,2398.6 h 74.835 v 74.835 H 1502.8 Z"
         id="path1498" />
      <path
         d="m 1827.1,2398.6 h 74.835 v 74.835 H 1827.1 Z"
         id="path1500" />
      <path
         d="m 1827.1,2722.8 h 74.835 v 74.835 H 1827.1 Z"
         id="path1502" />
      <path
         d="m 1502.8,2722.8 h 74.835 v 74.835 H 1502.8 Z"
         id="path1504" />
      <path
         d="m 1901.9,2473.4 h 249.45 v 49.89 H 1901.9 Z"
         id="path1506" />
      <path
         d="m 1901.9,2673 h 249.45 v 49.89 H 1901.9 Z"
         id="path1508" />
      <path
         d="m 2101.5,2473.4 h 49.89 v 249.45 h -49.89 z"
         id="path1510" />
      <path
         d="m 1901.9,2473.4 h 49.89 v 249.45 h -49.89 z"
         id="path1512" />
      <path
         d="m 2001.7,2648 h 24.945 v 24.945 H 2001.7 Z"
         id="path1514" />
      <path
         d="m 2051.6,2648 h 24.945 v 24.945 H 2051.6 Z"
         id="path1516" />
      <path
         d="m 1976.8,2623.1 h 24.945 v 24.945 H 1976.8 Z"
         id="path1518" />
      <path
         d="m 2001.7,2623.1 h 24.945 v 24.945 H 2001.7 Z"
         id="path1520" />
      <path
         d="m 2026.7,2623.1 h 24.945 v 24.945 H 2026.7 Z"
         id="path1522" />
      <path
         d="m 2051.6,2623.1 h 24.945 v 24.945 H 2051.6 Z"
         id="path1524" />
      <path
         d="m 2076.5,2623.1 h 24.945 v 24.945 H 2076.5 Z"
         id="path1526" />
      <path
         d="m 1951.8,2598.1 h 24.945 v 24.945 H 1951.8 Z"
         id="path1528" />
      <path
         d="m 1976.8,2573.2 h 24.945 v 24.945 H 1976.8 Z"
         id="path1530" />
      <path
         d="m 2001.7,2573.2 h 24.945 v 24.945 H 2001.7 Z"
         id="path1532" />
      <path
         d="m 2026.7,2573.2 h 24.945 v 24.945 H 2026.7 Z"
         id="path1534" />
      <path
         d="m 2051.6,2573.2 h 24.945 v 24.945 H 2051.6 Z"
         id="path1536" />
      <path
         d="m 1976.8,2548.2 h 24.945 v 24.945 H 1976.8 Z"
         id="path1538" />
      <path
         d="m 2001.7,2548.2 h 24.945 v 24.945 H 2001.7 Z"
         id="path1540" />
      <path
         d="m 2051.6,2548.2 h 24.945 v 24.945 H 2051.6 Z"
         id="path1542" />
      <path
         d="m 1976.8,2523.3 h 24.945 v 24.945 H 1976.8 Z"
         id="path1544" />
      <path
         d="m 2001.7,2523.3 h 24.945 v 24.945 H 2001.7 Z"
         id="path1546" />
      <path
         d="m 2026.7,2523.3 h 24.945 v 24.945 H 2026.7 Z"
         id="path1548" />
      <path
         d="m 2076.5,2523.3 h 24.945 v 24.945 H 2076.5 Z"
         id="path1550" />
      <path
         d="m 1827.1,2398.6 h 74.835 v 74.835 H 1827.1 Z"
         id="path1552" />
      <path
         d="m 2151.4,2398.6 h 74.834 v 74.835 H 2151.4 Z"
         id="path1554" />
      <path
         d="m 2151.4,2722.8 h 74.834 v 74.835 H 2151.4 Z"
         id="path1556" />
      <path
         d="m 1827.1,2722.8 h 74.835 v 74.835 H 1827.1 Z"
         id="path1558" />
      <path
         d="m 280.52,2797.7 h 249.45 v 49.89 H 280.52 Z"
         id="path1560" />
      <path
         d="m 280.52,2997.2 h 249.45 v 49.89 H 280.52 Z"
         id="path1562" />
      <path
         d="m 480.08,2797.7 h 49.89 v 249.45 h -49.89 z"
         id="path1564" />
      <path
         d="m 280.52,2797.7 h 49.89 v 249.45 h -49.89 z"
         id="path1566" />
      <path
         d="m 405.24,2972.3 h 24.945 v 24.945 H 405.24 Z"
         id="path1568" />
      <path
         d="m 430.19,2972.3 h 24.945 v 24.945 H 430.19 Z"
         id="path1570" />
      <path
         d="m 330.41,2947.4 h 24.945 v 24.945 H 330.41 Z"
         id="path1572" />
      <path
         d="m 355.35,2947.4 h 24.945 v 24.945 H 355.35 Z"
         id="path1574" />
      <path
         d="m 405.24,2947.4 h 24.945 v 24.945 H 405.24 Z"
         id="path1576" />
      <path
         d="m 455.13,2947.4 h 24.945 v 24.945 H 455.13 Z"
         id="path1578" />
      <path
         d="m 355.35,2922.4 h 24.945 v 24.945 H 355.35 Z"
         id="path1580" />
      <path
         d="m 455.13,2922.4 h 24.945 v 24.945 H 455.13 Z"
         id="path1582" />
      <path
         d="m 355.35,2897.5 h 24.945 v 24.945 H 355.35 Z"
         id="path1584" />
      <path
         d="m 380.3,2897.5 h 24.945 v 24.945 H 380.3 Z"
         id="path1586" />
      <path
         d="m 405.24,2897.5 h 24.945 v 24.945 H 405.24 Z"
         id="path1588" />
      <path
         d="m 330.41,2872.5 h 24.945 v 24.945 H 330.41 Z"
         id="path1590" />
      <path
         d="m 355.35,2872.5 h 24.945 v 24.945 H 355.35 Z"
         id="path1592" />
      <path
         d="m 380.3,2872.5 h 24.945 v 24.945 H 380.3 Z"
         id="path1594" />
      <path
         d="m 405.24,2872.5 h 24.945 v 24.945 H 405.24 Z"
         id="path1596" />
      <path
         d="m 430.19,2872.5 h 24.945 v 24.945 H 430.19 Z"
         id="path1598" />
      <path
         d="m 380.3,2847.6 h 24.945 v 24.945 H 380.3 Z"
         id="path1600" />
      <path
         d="m 455.13,2847.6 h 24.945 v 24.945 H 455.13 Z"
         id="path1602" />
      <path
         d="m 205.68,2722.8 h 74.835 v 74.835 H 205.68 Z"
         id="path1604" />
      <path
         d="m 529.97,2722.8 h 74.835 v 74.835 H 529.97 Z"
         id="path1606" />
      <path
         d="m 529.97,3047.1 h 74.835 v 74.835 H 529.97 Z"
         id="path1608" />
      <path
         d="m 205.68,3047.1 h 74.835 v 74.835 H 205.68 Z"
         id="path1610" />
      <path
         d="m 604.8,2797.7 h 249.45 v 49.89 H 604.8 Z"
         id="path1612" />
      <path
         d="m 604.8,2997.2 h 249.45 v 49.89 H 604.8 Z"
         id="path1614" />
      <path
         d="m 804.36,2797.7 h 49.89 v 249.45 h -49.89 z"
         id="path1616" />
      <path
         d="m 604.8,2797.7 h 49.89 v 249.45 H 604.8 Z"
         id="path1618" />
      <path
         d="m 654.69,2972.3 h 24.945 v 24.945 H 654.69 Z"
         id="path1620" />
      <path
         d="m 679.64,2972.3 h 24.945 v 24.945 H 679.64 Z"
         id="path1622" />
      <path
         d="m 729.52,2972.3 h 24.945 v 24.945 H 729.52 Z"
         id="path1624" />
      <path
         d="m 654.69,2947.4 h 24.945 v 24.945 H 654.69 Z"
         id="path1626" />
      <path
         d="m 754.47,2947.4 h 24.945 v 24.945 H 754.47 Z"
         id="path1628" />
      <path
         d="m 729.52,2922.4 h 24.945 v 24.945 H 729.52 Z"
         id="path1630" />
      <path
         d="m 754.47,2922.4 h 24.945 v 24.945 H 754.47 Z"
         id="path1632" />
      <path
         d="m 679.64,2897.5 h 24.945 v 24.945 H 679.64 Z"
         id="path1634" />
      <path
         d="m 729.52,2897.5 h 24.945 v 24.945 H 729.52 Z"
         id="path1636" />
      <path
         d="m 779.42,2897.5 h 24.945 v 24.945 H 779.42 Z"
         id="path1638" />
      <path
         d="m 654.69,2872.5 h 24.945 v 24.945 H 654.69 Z"
         id="path1640" />
      <path
         d="m 679.64,2872.5 h 24.945 v 24.945 H 679.64 Z"
         id="path1642" />
      <path
         d="m 654.69,2847.6 h 24.945 v 24.945 H 654.69 Z"
         id="path1644" />
      <path
         d="m 729.52,2847.6 h 24.945 v 24.945 H 729.52 Z"
         id="path1646" />
      <path
         d="m 779.42,2847.6 h 24.945 v 24.945 H 779.42 Z"
         id="path1648" />
      <path
         d="m 529.97,2722.8 h 74.835 v 74.835 H 529.97 Z"
         id="path1650" />
      <path
         d="m 854.25,2722.8 h 74.835 v 74.835 H 854.25 Z"
         id="path1652" />
      <path
         d="m 854.25,3047.1 h 74.835 v 74.835 H 854.25 Z"
         id="path1654" />
      <path
         d="m 529.97,3047.1 h 74.835 v 74.835 H 529.97 Z"
         id="path1656" />
      <path
         d="m 929.08,2797.7 h 249.45 v 49.89 H 929.08 Z"
         id="path1658" />
      <path
         d="m 929.08,2997.2 h 249.45 v 49.89 H 929.08 Z"
         id="path1660" />
      <path
         d="m 1128.6,2797.7 h 49.89 v 249.45 h -49.89 z"
         id="path1662" />
      <path
         d="m 929.08,2797.7 h 49.89 v 249.45 h -49.89 z"
         id="path1664" />
      <path
         d="m 978.97,2972.3 h 24.945 v 24.945 H 978.97 Z"
         id="path1666" />
      <path
         d="m 1028.9,2972.3 h 24.945 v 24.945 H 1028.9 Z"
         id="path1668" />
      <path
         d="m 1053.8,2972.3 h 24.945 v 24.945 H 1053.8 Z"
         id="path1670" />
      <path
         d="m 1078.8,2972.3 h 24.945 v 24.945 H 1078.8 Z"
         id="path1672" />
      <path
         d="m 1103.7,2972.3 h 24.945 v 24.945 H 1103.7 Z"
         id="path1674" />
      <path
         d="m 1078.8,2947.4 h 24.945 v 24.945 H 1078.8 Z"
         id="path1676" />
      <path
         d="m 978.97,2922.4 h 24.945 v 24.945 H 978.97 Z"
         id="path1678" />
      <path
         d="m 1028.9,2922.4 h 24.945 v 24.945 H 1028.9 Z"
         id="path1680" />
      <path
         d="m 1053.8,2922.4 h 24.945 v 24.945 H 1053.8 Z"
         id="path1682" />
      <path
         d="m 1078.8,2922.4 h 24.945 v 24.945 H 1078.8 Z"
         id="path1684" />
      <path
         d="m 1103.7,2922.4 h 24.945 v 24.945 H 1103.7 Z"
         id="path1686" />
      <path
         d="m 978.97,2897.5 h 24.945 v 24.945 H 978.97 Z"
         id="path1688" />
      <path
         d="m 1003.9,2897.5 h 24.945 v 24.945 H 1003.9 Z"
         id="path1690" />
      <path
         d="m 1078.8,2897.5 h 24.945 v 24.945 H 1078.8 Z"
         id="path1692" />
      <path
         d="m 1103.7,2897.5 h 24.945 v 24.945 H 1103.7 Z"
         id="path1694" />
      <path
         d="m 978.97,2872.5 h 24.945 v 24.945 H 978.97 Z"
         id="path1696" />
      <path
         d="m 1053.8,2872.5 h 24.945 v 24.945 H 1053.8 Z"
         id="path1698" />
      <path
         d="m 1078.8,2872.5 h 24.945 v 24.945 H 1078.8 Z"
         id="path1700" />
      <path
         d="m 1053.8,2847.6 h 24.945 v 24.945 H 1053.8 Z"
         id="path1702" />
      <path
         d="m 1078.8,2847.6 h 24.945 v 24.945 H 1078.8 Z"
         id="path1704" />
      <path
         d="m 1103.7,2847.6 h 24.945 v 24.945 H 1103.7 Z"
         id="path1706" />
      <path
         d="m 854.25,2722.8 h 74.835 v 74.835 H 854.25 Z"
         id="path1708" />
      <path
         d="m 1178.5,2722.8 h 74.835 v 74.835 H 1178.5 Z"
         id="path1710" />
      <path
         d="m 1178.5,3047.1 h 74.835 v 74.835 H 1178.5 Z"
         id="path1712" />
      <path
         d="m 854.25,3047.1 h 74.835 v 74.835 H 854.25 Z"
         id="path1714" />
      <path
         d="m 1253.4,2797.7 h 249.45 v 49.89 H 1253.4 Z"
         id="path1716" />
      <path
         d="m 1253.4,2997.2 h 249.45 v 49.89 H 1253.4 Z"
         id="path1718" />
      <path
         d="m 1452.9,2797.7 h 49.89 v 249.45 h -49.89 z"
         id="path1720" />
      <path
         d="m 1253.4,2797.7 h 49.89 v 249.45 h -49.89 z"
         id="path1722" />
      <path
         d="m 1303.3,2972.3 h 24.945 v 24.945 H 1303.3 Z"
         id="path1724" />
      <path
         d="m 1353.1,2972.3 h 24.945 v 24.945 H 1353.1 Z"
         id="path1726" />
      <path
         d="m 1403,2972.3 h 24.945 v 24.945 H 1403 Z"
         id="path1728" />
      <path
         d="m 1328.2,2947.4 h 24.945 v 24.945 H 1328.2 Z"
         id="path1730" />
      <path
         d="m 1353.1,2947.4 h 24.945 v 24.945 H 1353.1 Z"
         id="path1732" />
      <path
         d="m 1378.1,2947.4 h 24.945 v 24.945 H 1378.1 Z"
         id="path1734" />
      <path
         d="m 1428,2947.4 h 24.945 v 24.945 H 1428 Z"
         id="path1736" />
      <path
         d="m 1303.3,2922.4 h 24.945 v 24.945 H 1303.3 Z"
         id="path1738" />
      <path
         d="m 1328.2,2922.4 h 24.945 v 24.945 H 1328.2 Z"
         id="path1740" />
      <path
         d="m 1353.1,2922.4 h 24.945 v 24.945 H 1353.1 Z"
         id="path1742" />
      <path
         d="m 1378.1,2922.4 h 24.945 v 24.945 H 1378.1 Z"
         id="path1744" />
      <path
         d="m 1428,2922.4 h 24.945 v 24.945 H 1428 Z"
         id="path1746" />
      <path
         d="m 1428,2897.5 h 24.945 v 24.945 H 1428 Z"
         id="path1748" />
      <path
         d="m 1303.3,2872.5 h 24.945 v 24.945 H 1303.3 Z"
         id="path1750" />
      <path
         d="m 1328.2,2872.5 h 24.945 v 24.945 H 1328.2 Z"
         id="path1752" />
      <path
         d="m 1403,2872.5 h 24.945 v 24.945 H 1403 Z"
         id="path1754" />
      <path
         d="m 1303.3,2847.6 h 24.945 v 24.945 H 1303.3 Z"
         id="path1756" />
      <path
         d="m 1353.1,2847.6 h 24.945 v 24.945 H 1353.1 Z"
         id="path1758" />
      <path
         d="m 1378.1,2847.6 h 24.945 v 24.945 H 1378.1 Z"
         id="path1760" />
      <path
         d="m 1403,2847.6 h 24.945 v 24.945 H 1403 Z"
         id="path1762" />
      <path
         d="m 1178.5,2722.8 h 74.835 v 74.835 H 1178.5 Z"
         id="path1764" />
      <path
         d="m 1502.8,2722.8 h 74.835 v 74.835 H 1502.8 Z"
         id="path1766" />
      <path
         d="m 1502.8,3047.1 h 74.835 v 74.835 H 1502.8 Z"
         id="path1768" />
      <path
         d="m 1178.5,3047.1 h 74.835 v 74.835 H 1178.5 Z"
         id="path1770" />
      <path
         d="m 1577.7,2797.7 h 249.45 v 49.89 H 1577.7 Z"
         id="path1772" />
      <path
         d="m 1577.7,2997.2 h 249.45 v 49.89 H 1577.7 Z"
         id="path1774" />
      <path
         d="m 1777.2,2797.7 h 49.89 v 249.45 h -49.89 z"
         id="path1776" />
      <path
         d="m 1577.7,2797.7 h 49.89 v 249.45 h -49.89 z"
         id="path1778" />
      <path
         d="m 1627.5,2972.3 h 24.945 v 24.945 H 1627.5 Z"
         id="path1780" />
      <path
         d="m 1702.4,2972.3 h 24.945 v 24.945 H 1702.4 Z"
         id="path1782" />
      <path
         d="m 1727.3,2972.3 h 24.945 v 24.945 H 1727.3 Z"
         id="path1784" />
      <path
         d="m 1627.5,2947.4 h 24.945 v 24.945 H 1627.5 Z"
         id="path1786" />
      <path
         d="m 1652.5,2947.4 h 24.945 v 24.945 H 1652.5 Z"
         id="path1788" />
      <path
         d="m 1727.3,2947.4 h 24.945 v 24.945 H 1727.3 Z"
         id="path1790" />
      <path
         d="m 1752.3,2947.4 h 24.945 v 24.945 H 1752.3 Z"
         id="path1792" />
      <path
         d="m 1627.5,2922.4 h 24.945 v 24.945 H 1627.5 Z"
         id="path1794" />
      <path
         d="m 1677.4,2922.4 h 24.945 v 24.945 H 1677.4 Z"
         id="path1796" />
      <path
         d="m 1702.4,2922.4 h 24.945 v 24.945 H 1702.4 Z"
         id="path1798" />
      <path
         d="m 1727.3,2922.4 h 24.945 v 24.945 H 1727.3 Z"
         id="path1800" />
      <path
         d="m 1652.5,2872.5 h 24.945 v 24.945 H 1652.5 Z"
         id="path1802" />
      <path
         d="m 1702.4,2872.5 h 24.945 v 24.945 H 1702.4 Z"
         id="path1804" />
      <path
         d="m 1727.3,2872.5 h 24.945 v 24.945 H 1727.3 Z"
         id="path1806" />
      <path
         d="m 1652.5,2847.6 h 24.945 v 24.945 H 1652.5 Z"
         id="path1808" />
      <path
         d="m 1677.4,2847.6 h 24.945 v 24.945 H 1677.4 Z"
         id="path1810" />
      <path
         d="m 1727.3,2847.6 h 24.945 v 24.945 H 1727.3 Z"
         id="path1812" />
      <path
         d="m 1502.8,2722.8 h 74.835 v 74.835 H 1502.8 Z"
         id="path1814" />
      <path
         d="m 1827.1,2722.8 h 74.835 v 74.835 H 1827.1 Z"
         id="path1816" />
      <path
         d="m 1827.1,3047.1 h 74.835 v 74.835 H 1827.1 Z"
         id="path1818" />
      <path
         d="m 1502.8,3047.1 h 74.835 v 74.835 H 1502.8 Z"
         id="path1820" />
      <path
         d="m 1901.9,2797.7 h 249.45 v 49.89 H 1901.9 Z"
         id="path1822" />
      <path
         d="m 1901.9,2997.2 h 249.45 v 49.89 H 1901.9 Z"
         id="path1824" />
      <path
         d="m 2101.5,2797.7 h 49.89 v 249.45 h -49.89 z"
         id="path1826" />
      <path
         d="m 1901.9,2797.7 h 49.89 v 249.45 h -49.89 z"
         id="path1828" />
      <path
         d="m 1951.8,2972.3 h 24.945 v 24.945 H 1951.8 Z"
         id="path1830" />
      <path
         d="m 2026.7,2972.3 h 24.945 v 24.945 H 2026.7 Z"
         id="path1832" />
      <path
         d="m 2076.5,2972.3 h 24.945 v 24.945 H 2076.5 Z"
         id="path1834" />
      <path
         d="m 1951.8,2947.4 h 24.945 v 24.945 H 1951.8 Z"
         id="path1836" />
      <path
         d="m 1976.8,2947.4 h 24.945 v 24.945 H 1976.8 Z"
         id="path1838" />
      <path
         d="m 2001.7,2947.4 h 24.945 v 24.945 H 2001.7 Z"
         id="path1840" />
      <path
         d="m 2076.5,2947.4 h 24.945 v 24.945 H 2076.5 Z"
         id="path1842" />
      <path
         d="m 2001.7,2922.4 h 24.945 v 24.945 H 2001.7 Z"
         id="path1844" />
      <path
         d="m 2051.6,2922.4 h 24.945 v 24.945 H 2051.6 Z"
         id="path1846" />
      <path
         d="m 2001.7,2897.5 h 24.945 v 24.945 H 2001.7 Z"
         id="path1848" />
      <path
         d="m 2026.7,2897.5 h 24.945 v 24.945 H 2026.7 Z"
         id="path1850" />
      <path
         d="m 2051.6,2897.5 h 24.945 v 24.945 H 2051.6 Z"
         id="path1852" />
      <path
         d="m 2076.5,2897.5 h 24.945 v 24.945 H 2076.5 Z"
         id="path1854" />
      <path
         d="m 1951.8,2872.5 h 24.945 v 24.945 H 1951.8 Z"
         id="path1856" />
      <path
         d="m 1976.8,2872.5 h 24.945 v 24.945 H 1976.8 Z"
         id="path1858" />
      <path
         d="m 2001.7,2872.5 h 24.945 v 24.945 H 2001.7 Z"
         id="path1860" />
      <path
         d="m 2026.7,2872.5 h 24.945 v 24.945 H 2026.7 Z"
         id="path1862" />
      <path
         d="m 2051.6,2872.5 h 24.945 v 24.945 H 2051.6 Z"
         id="path1864" />
      <path
         d="m 2076.5,2872.5 h 24.945 v 24.945 H 2076.5 Z"
         id="path1866" />
      <path
         d="m 1976.8,2847.6 h 24.945 v 24.945 H 1976.8 Z"
         id="path1868" />
      <path
         d="m 2026.7,2847.6 h 24.945 v 24.945 H 2026.7 Z"
         id="path1870" />
      <path
         d="m 2076.5,2847.6 h 24.945 v 24.945 H 2076.5 Z"
         id="path1872" />
      <path
         d="m 1827.1,2722.8 h 74.835 v 74.835 H 1827.1 Z"
         id="path1874" />
      <path
         d="m 2151.4,2722.8 h 74.834 v 74.835 H 2151.4 Z"
         id="path1876" />
      <path
         d="m 2151.4,3047.1 h 74.834 v 74.835 H 2151.4 Z"
         id="path1878" />
      <path
         d="m 1827.1,3047.1 h 74.835 v 74.835 H 1827.1 Z"
         id="path1880" />
    </g>
    <g
       transform="translate(168.27,1064)"
       id="g1886">
      <path
         d="M 0,0 H 56.398"
         fill="none"
         stroke="#ff0000"
         stroke-miterlimit="10"
         stroke-width="0.567"
         id="path1884" />
    </g>
    <g
       transform="translate(220.05,1073.6)"
       id="g1890">
      <path
         d="M 0,0 23.046,-9.546 0,-19.092 4.609,-9.546 Z"
         fill="#ff0000"
         stroke="#ff0000"
         stroke-linejoin="round"
         stroke-miterlimit="10"
         stroke-width="0.567"
         id="path1888" />
    </g>
    <text
       transform="matrix(1,0,0,-1,243.1,1064)"
       fill="#000000"
       font-family="'CM R 10'"
       font-size="9.9626px"
       xml:space="preserve"
       id="text1894"><tspan
         x="0"
         y="0"
         id="tspan1892">x</tspan></text>
    <g
       transform="translate(168.27,1064)"
       id="g1898">
      <path
         d="M 0,0 V 56.398"
         fill="none"
         stroke="#00ff00"
         stroke-miterlimit="10"
         stroke-width="0.567"
         id="path1896" />
    </g>
    <g
       transform="translate(158.72,1115.8)"
       id="g1902">
      <path
         d="M 0,0 9.546,23.046 19.092,0 9.546,4.609 Z"
         fill="#00ff00"
         stroke="#00ff00"
         stroke-linejoin="round"
         stroke-miterlimit="10"
         stroke-width="0.567"
         id="path1900" />
    </g>
    <text
       transform="matrix(1,0,0,-1,168.27,1138.8)"
       fill="#000000"
       font-family="'CM R 10'"
       font-size="9.9626px"
       xml:space="preserve"
       id="text1908"><tspan
         x="0"
         y="0"
         id="tspan1904">y</tspan><tspan
         x="149.66814 154.64944 159.89973 168.20854 172.07402 177.05533 182.03662 185.9619 192.05901 195.98427 198.74391 203.1673 207.5907 215.33163 220.31294 223.07257 228.05388 232.47726 244.14348 249.12477 254.65402 263.51077 267.43604 272.96527 277.94656 282.36996 285.12961 290.65884 295.64017 303.3811 308.3624 311.12204 316.10333 321.08463 325.50803"
         y="74.83905"
         id="tspan1906">6x6tags,size=8.8cmandspacing=2.64cm</tspan></text>
  </g>
</svg>
